<?xml version="1.0" encoding="iso-8859-1"?>
<!-- Generator: Adobe Illustrator 21.1.0, SVG Export Plug-In . SVG Version: 6.00 Build 0)  -->
<svg version="1.1" id="education" xmlns="http://www.w3.org/2000/svg" xmlns:xlink="http://www.w3.org/1999/xlink" x="0px" y="0px"
	 viewBox="0 0 100 100" style="enable-background:new 0 0 100 100;" xml:space="preserve">
<g>
	<path style="fill:none;" d="M50.46,62.98c-1.44,0-2.6,1.07-2.6,2.39v3.9h0.29c0.91-0.02,3.72-0.02,4.63,0h0.29v-3.9
		C53.06,64.05,51.9,62.98,50.46,62.98z"/>
	<path style="fill:none;" d="M50.46,24.39c-0.08,0-0.16,0-0.24,0c-9.11,0.13-16.58,7.64-16.66,16.75
		c-0.03,3.69,1.11,7.21,3.29,10.17c3.91,5.3,6.03,11.49,6.15,17.96h3.11v-3.9c0-1.48,0.89-2.78,2.2-3.47V48.85
		c-0.42,0.21-0.9,0.33-1.4,0.33c-1.73,0-3.14-1.41-3.14-3.14c0-1.73,1.41-3.14,3.14-3.14c1.73,0,3.14,1.41,3.14,3.14V61.4
		c0.13-0.01,0.27-0.02,0.41-0.02c0.14,0,0.27,0.01,0.41,0.02V46.04c0-1.73,1.41-3.14,3.14-3.14c1.73,0,3.14,1.41,3.14,3.14
		c0,1.73-1.41,3.14-3.14,3.14c-0.5,0-0.98-0.12-1.4-0.33V61.9c1.31,0.69,2.2,1.98,2.2,3.47v3.9h3.11c0.12-6.41,2.26-12.63,6.2-18.03
		c2.12-2.91,3.24-6.35,3.24-9.96c0-4.56-1.79-8.83-5.03-12.03C59.14,26.11,54.93,24.39,50.46,24.39z"/>
	<path style="fill:none;" d="M42.92,71.01v8.77c0,3,2.44,5.44,5.44,5.44h4.2c3,0,5.44-2.44,5.44-5.44v-8.77H42.92z"/>
	<path style="fill:none;" d="M50.31,87.36h0.29c0.42,0,0.8-0.15,1.11-0.4h-2.5C49.51,87.21,49.89,87.36,50.31,87.36z"/>
	<circle style="fill:none;" cx="54.01" cy="46.04" r="1.4"/>
	<circle style="fill:none;" cx="46.91" cy="46.04" r="1.4"/>
	<path style="fill:#FFFFFF;" d="M50.19,22.65c-10.05,0.14-18.29,8.43-18.38,18.48c-0.03,4.07,1.22,7.95,3.63,11.22
		c3.69,5,5.69,10.84,5.81,16.92h-0.08v10.51c0,3.51,2.54,6.44,5.88,7.06c0.5,1.32,1.77,2.26,3.25,2.26h0.29
		c1.49,0,2.76-0.94,3.25-2.26c3.34-0.61,5.88-3.54,5.88-7.06V69.27h-0.08c0.12-6.04,2.14-11.91,5.86-17c2.34-3.21,3.58-7,3.58-10.98
		c0-5.03-1.97-9.74-5.55-13.27C59.97,24.49,55.22,22.59,50.19,22.65z M50.6,87.36h-0.29c-0.42,0-0.8-0.15-1.11-0.4h2.5
		C51.41,87.21,51.02,87.36,50.6,87.36z M52.56,85.22h-4.2c-3,0-5.44-2.44-5.44-5.44v-8.77H58v8.77C58,82.78,55.56,85.22,52.56,85.22
		z M53.06,69.27h-0.29c-0.91-0.02-3.72-0.02-4.63,0h-0.29v-3.9c0-1.32,1.17-2.39,2.6-2.39c1.44,0,2.6,1.07,2.6,2.39V69.27z
		 M64.11,51.25c-3.94,5.39-6.08,11.61-6.2,18.03H54.8v-3.9c0-1.48-0.89-2.78-2.2-3.47V48.85c0.42,0.21,0.9,0.33,1.4,0.33
		c1.73,0,3.14-1.41,3.14-3.14c0-1.73-1.41-3.14-3.14-3.14c-1.73,0-3.14,1.41-3.14,3.14V61.4c-0.13-0.01-0.27-0.02-0.41-0.02
		c-0.14,0-0.27,0.01-0.41,0.02V46.04c0-1.73-1.41-3.14-3.14-3.14c-1.73,0-3.14,1.41-3.14,3.14c0,1.73,1.41,3.14,3.14,3.14
		c0.5,0,0.98-0.12,1.4-0.33V61.9c-1.31,0.69-2.2,1.98-2.2,3.47v3.9h-3.11c-0.12-6.46-2.24-12.66-6.15-17.96
		c-2.19-2.96-3.32-6.48-3.29-10.17c0.08-9.11,7.55-16.63,16.66-16.75c0.08,0,0.16,0,0.24,0c4.47,0,8.68,1.72,11.86,4.87
		c3.25,3.2,5.03,7.47,5.03,12.03C67.36,44.9,66.24,48.34,64.11,51.25z M52.61,46.04c0-0.77,0.63-1.4,1.4-1.4
		c0.77,0,1.4,0.63,1.4,1.4c0,0.77-0.63,1.4-1.4,1.4C53.24,47.45,52.61,46.82,52.61,46.04z M48.31,46.04c0,0.77-0.63,1.4-1.4,1.4
		c-0.77,0-1.4-0.63-1.4-1.4c0-0.77,0.63-1.4,1.4-1.4C47.68,44.64,48.31,45.27,48.31,46.04z"/>
	<path style="fill:#FFFFFF;" d="M50.46,20.64c0.48,0,0.87-0.39,0.87-0.87v-7.99c0-0.48-0.39-0.87-0.87-0.87
		c-0.48,0-0.87,0.39-0.87,0.87v7.99C49.59,20.25,49.98,20.64,50.46,20.64z"/>
	<path style="fill:#FFFFFF;" d="M67.22,25.76c0.22,0,0.45-0.09,0.62-0.26l5.12-5.12c0.34-0.34,0.34-0.89,0-1.23
		c-0.34-0.34-0.89-0.34-1.23,0l-5.12,5.12c-0.34,0.34-0.34,0.89,0,1.23C66.78,25.68,67,25.76,67.22,25.76z"/>
	<path style="fill:#FFFFFF;" d="M80.63,37.59l-6.84,0c-0.48,0-0.87,0.39-0.87,0.87c0,0.48,0.39,0.87,0.87,0.87l6.84,0
		c0.48,0,0.87-0.39,0.87-0.87S81.11,37.59,80.63,37.59z"/>
	<path style="fill:#FFFFFF;" d="M27.11,37.59l-7.73,0c-0.48,0-0.87,0.39-0.87,0.87c0,0.48,0.39,0.87,0.87,0.87l7.73,0
		c0.48,0,0.87-0.39,0.87-0.87S27.59,37.59,27.11,37.59z"/>
	<path style="fill:#FFFFFF;" d="M32.07,25.51c0.17,0.17,0.39,0.26,0.62,0.26c0.22,0,0.45-0.09,0.62-0.26c0.34-0.34,0.34-0.89,0-1.23
		l-5.54-5.54c-0.34-0.34-0.89-0.34-1.23,0c-0.34,0.34-0.34,0.89,0,1.23L32.07,25.51z"/>
</g>
<g>
</g>
<g>
</g>
<g>
</g>
<g>
</g>
<g>
</g>
<g>
</g>
</svg>
