<?xml version="1.0" encoding="iso-8859-1"?>
<!-- Generator: Adobe Illustrator 21.1.0, SVG Export Plug-In . SVG Version: 6.00 Build 0)  -->
<svg version="1.1" xmlns="http://www.w3.org/2000/svg" xmlns:xlink="http://www.w3.org/1999/xlink" x="0px" y="0px"
	 viewBox="0 0 100 100" style="enable-background:new 0 0 100 100;" xml:space="preserve">
<g id="hatchery">
	<g>
		<path style="fill:#FFFFFF;" d="M51.18,49.14c-11.73,0-24.13-6.8-27.65-8.89l-0.72-0.43l-8.84,6.27V31.62l8.84,6.27l0.72-0.43
			c3.52-2.09,15.93-8.89,27.65-8.89c13.81,0,24.8,9.28,25.27,9.67l0.71,0.61l-0.71,0.61C75.99,39.86,64.98,49.14,51.18,49.14z
			 M51.18,30.18c-9.52,0-19.65,4.73-24.84,7.55l-2.08,1.13l2.08,1.13c5.19,2.82,15.32,7.55,24.84,7.55c3.09,0,6.32-0.51,9.61-1.52
			l1.27-0.39l-0.43-1.26c-0.46-1.33-1.01-3.36-1.01-5.5c0-2.14,0.55-4.17,1-5.5l0.43-1.26l-1.27-0.39
			C57.5,30.69,54.27,30.18,51.18,30.18z M63.13,33.96c-0.59,1.73-0.89,3.38-0.89,4.89c0,1.51,0.3,3.16,0.89,4.9l0.45,1.31l1.27-0.54
			c3.63-1.55,6.53-3.36,8.33-4.61l1.52-1.06l-1.52-1.06c-1.8-1.25-4.7-3.06-8.33-4.61l-1.28-0.54L63.13,33.96z M15.58,42.98
			l5.77-4.09l-0.05-0.03l0.05-0.03l-5.77-4.09V42.98z"/>
		<path style="fill:#FFFFFF;" d="M35.02,71.43c-7.73,0-15.89-4.47-18.21-5.85L16.5,65.4l-6.07,4.31V59.15l6.07,4.3l0.31-0.18
			c2.32-1.37,10.48-5.85,18.21-5.85c9.13,0,16.38,6.13,16.69,6.39l0.72,0.62l-0.72,0.62C51.4,65.3,44.14,71.43,35.02,71.43z
			 M18.93,64.92c3.37,1.83,9.94,4.89,16.09,4.89c1.99,0,4.07-0.33,6.2-0.98l0.55-0.17l-0.19-0.54c-0.31-0.89-0.67-2.25-0.67-3.69
			c0-1.44,0.37-2.8,0.67-3.68l0.19-0.54l-0.55-0.17c-2.12-0.65-4.21-0.99-6.2-0.99c-6.16,0-12.72,3.07-16.09,4.89l-0.9,0.49
			L18.93,64.92z M43.09,61.32c-0.37,1.1-0.56,2.14-0.56,3.1c0,0.96,0.19,2,0.57,3.11l0.19,0.57l0.55-0.23
			c2.35-1,4.23-2.18,5.39-2.98l0.66-0.46l-0.66-0.46c-1.16-0.81-3.04-1.98-5.39-2.98l-0.55-0.24L43.09,61.32z M12.05,66.57
			l2.97-2.11l-0.05-0.03l0.05-0.03l-2.98-2.11V66.57z"/>
		<path style="fill:#FFFFFF;" d="M76.15,62.57c-5.94,0-12.2-3.43-13.97-4.48l-0.2-0.12l-4.72,3.35v-8.34l4.72,3.35l0.2-0.12
			c1.78-1.05,8.04-4.48,13.97-4.48c7.01,0,12.58,4.71,12.82,4.91l0.61,0.52l-0.61,0.52C88.73,57.87,83.16,62.57,76.15,62.57z
			 M63.86,57.46c2.57,1.4,7.59,3.74,12.28,3.74c1.52,0,3.11-0.25,4.72-0.75l0.35-0.11l-0.12-0.35c-0.24-0.69-0.52-1.74-0.52-2.85
			c0-1.11,0.28-2.16,0.52-2.84l0.12-0.35l-0.35-0.11c-1.62-0.5-3.21-0.75-4.72-0.75c-4.7,0-9.71,2.34-12.28,3.74l-0.58,0.31
			L63.86,57.46z M82.39,54.79c-0.28,0.84-0.43,1.63-0.43,2.35c0,0.73,0.15,1.52,0.43,2.36l0.12,0.37l0.35-0.15
			c1.79-0.77,3.23-1.66,4.11-2.28l0.42-0.29l-0.42-0.29c-0.89-0.62-2.32-1.51-4.11-2.28l-0.35-0.15L82.39,54.79z M58.63,58.66
			l2.09-1.48l-0.04-0.03l0.04-0.03l-2.09-1.48V58.66z"/>
	</g>
</g>
<g>
	<g>
	</g>
	<g>
	</g>
	<g>
	</g>
	<g>
	</g>
	<g>
	</g>
	<g>
	</g>
</g>
</svg>
