<?xml version="1.0" encoding="iso-8859-1"?>
<!-- Generator: Adobe Illustrator 21.1.0, SVG Export Plug-In . SVG Version: 6.00 Build 0)  -->
<svg version="1.1" xmlns="http://www.w3.org/2000/svg" xmlns:xlink="http://www.w3.org/1999/xlink" x="0px" y="0px"
	 viewBox="0 0 100 100" style="enable-background:new 0 0 100 100;" xml:space="preserve">
<g id="research">
	<path style="fill:#FFFFFF;" d="M77.04,59.01H54.04c-0.42,0-0.77,0.34-0.77,0.77v3.87c0,0.42,0.34,0.76,0.77,0.76h5.66
		c-2.83,4.59-7.8,7.39-13.25,7.39c-8.59,0-15.57-6.99-15.57-15.57s6.99-15.57,15.57-15.57c1.08,0,2.17,0.11,3.22,0.33l6.84,13.85
		c0.13,0.27,0.4,0.43,0.69,0.43c0.11,0,0.23-0.03,0.34-0.08l10.59-5.23c0.18-0.09,0.32-0.25,0.39-0.44c0.07-0.19,0.05-0.4-0.04-0.58
		L50.66,12.86c-0.09-0.18-0.25-0.32-0.44-0.39c-0.19-0.07-0.4-0.05-0.58,0.04l-1.03,0.51l-1.18-2.39c-0.09-0.18-0.25-0.32-0.44-0.39
		c-0.19-0.07-0.4-0.05-0.58,0.04l-7.17,3.54c-0.38,0.19-0.53,0.65-0.35,1.02l1.18,2.39l-1.03,0.51c-0.38,0.19-0.53,0.65-0.35,1.02
		l6.53,13.22c-12.81,0.64-23.04,11.26-23.04,24.23c0,10.39,6.57,19.28,15.78,22.73h-6.78c-0.15,0-0.29,0.04-0.42,0.12l-8.03,5.19
		c-0.22,0.14-0.35,0.38-0.35,0.64v4.13c0,0.42,0.34,0.77,0.77,0.77h45.37c0.42,0,0.77-0.34,0.77-0.77v-4.13
		c0-0.26-0.13-0.5-0.35-0.64l-8.03-5.19c-0.12-0.08-0.27-0.12-0.42-0.12h-5.56c6.57-2.45,11.89-7.69,14.34-14.55h7.76
		c0.42,0,0.77-0.34,0.77-0.76v-3.87C77.81,59.35,77.47,59.01,77.04,59.01z M46.4,11.99l0.84,1.71l-5.8,2.86l-0.84-1.71L46.4,11.99z
		 M40.41,18.78l9.22-4.56l17.13,34.69l-9.22,4.55L50.9,40.03c-0.02-0.04-0.03-0.07-0.05-0.11l-3.72-7.53c0,0,0,0,0,0L40.41,18.78z
		 M60.29,80.48l7.49,4.85v2.94H23.93v-2.94l7.49-4.85H60.29z M46.45,78.95c-12.53,0-22.73-10.2-22.73-22.73
		c0-12.37,9.94-22.47,22.25-22.72l2.86,5.78c-0.79-0.11-1.58-0.17-2.38-0.17c-9.43,0-17.1,7.67-17.1,17.1
		c0,9.43,7.67,17.1,17.1,17.1c6.3,0,12.02-3.41,15.02-8.92h6.19C64.29,73.15,55.9,78.95,46.45,78.95z M76.28,62.87h-7.54h-7.74H54.8
		v-2.34h21.48V62.87z"/>
</g>
<g>
	<g>
	</g>
	<g>
	</g>
	<g>
	</g>
	<g>
	</g>
	<g>
	</g>
	<g>
	</g>
</g>
</svg>
