<svg xmlns="http://www.w3.org/2000/svg" viewBox="0 0 20 20"><defs><style>.a{fill:#8aa4c2;}</style></defs><title>dotted-line</title><path class="a" d="M2.51,3.45H2.45a.89.89,0,0,0-.89.92,1,1,0,0,0,1,.92.92.92,0,1,0,0-1.84Z"/><path class="a" d="M17.52,3.45H17.4a.87.87,0,0,0-.86.92,1,1,0,0,0,1,.92.92.92,0,0,0,0-1.84Z"/><path class="a" d="M12.52,3.45H12.4a.87.87,0,0,0-.86.92,1,1,0,0,0,1,.92.92.92,0,0,0,0-1.84Z"/><path class="a" d="M7.51,3.45H7.39a.87.87,0,0,0-.86.92,1,1,0,0,0,1,.92.92.92,0,1,0,0-1.84Z"/><path class="a" d="M2.51,8.81H2.45a.89.89,0,0,0-.89.92,1,1,0,0,0,1,.92.92.92,0,0,0,0-1.84Z"/><path class="a" d="M7.51,8.81H7.39a.87.87,0,0,0-.86.92,1,1,0,0,0,1,.92.92.92,0,0,0,0-1.84Z"/><path class="a" d="M17.52,8.81H17.4a.87.87,0,0,0-.86.92,1,1,0,0,0,1,.92.92.92,0,0,0,0-1.84Z"/><path class="a" d="M12.52,8.81H12.4a.87.87,0,0,0-.86.92,1,1,0,0,0,1,.92.92.92,0,0,0,0-1.84Z"/><path class="a" d="M2.51,14.71H2.45a.89.89,0,0,0-.89.92,1,1,0,0,0,1,.92.92.92,0,0,0,0-1.84Z"/><path class="a" d="M12.52,14.71H12.4a.87.87,0,0,0-.86.92,1,1,0,0,0,1,.92.92.92,0,0,0,0-1.84Z"/><path class="a" d="M7.51,14.71H7.39a.87.87,0,0,0-.86.92,1,1,0,0,0,1,.92.92.92,0,0,0,0-1.84Z"/><path class="a" d="M17.52,14.71H17.4a.87.87,0,0,0-.86.92,1,1,0,0,0,1,.92.92.92,0,0,0,0-1.84Z"/></svg>