<svg xmlns="http://www.w3.org/2000/svg" viewBox="0 0 100 100"><defs><style>.a,.c{fill:none;stroke:#fff;stroke-miterlimit:10;}.a{stroke-width:1.7px;stroke-dasharray:0 38.66;}.b{fill:#fff;}.c{stroke-width:0.81px;}</style></defs><title>lenght-icon</title><line class="a" x1="49.99" y1="50" x2="73.21" y2="50"/><rect class="b" x="2.73" y="44.48" width="1.7" height="11.04"/><rect class="b" x="95.57" y="44.48" width="1.7" height="11.04"/><line class="c" x1="92.38" y1="47.32" x2="92.38" y2="52.51"/><line class="c" x1="87.7" y1="47.32" x2="87.7" y2="52.51"/><line class="c" x1="83.01" y1="47.32" x2="83.01" y2="52.51"/><line class="c" x1="78.33" y1="47.32" x2="78.33" y2="52.51"/><line class="c" x1="73.64" y1="47.32" x2="73.64" y2="52.51"/><line class="c" x1="68.96" y1="47.32" x2="68.96" y2="52.51"/><line class="c" x1="64.27" y1="47.32" x2="64.27" y2="52.51"/><line class="c" x1="59.59" y1="47.32" x2="59.59" y2="52.51"/><line class="c" x1="54.9" y1="47.32" x2="54.9" y2="52.51"/><line class="c" x1="50.22" y1="47.32" x2="50.22" y2="52.51"/><line class="c" x1="45.53" y1="47.32" x2="45.53" y2="52.51"/><line class="c" x1="40.85" y1="47.32" x2="40.85" y2="52.51"/><line class="c" x1="36.16" y1="47.32" x2="36.16" y2="52.51"/><line class="c" x1="31.48" y1="47.32" x2="31.48" y2="52.51"/><line class="c" x1="26.79" y1="47.32" x2="26.79" y2="52.51"/><line class="c" x1="22.11" y1="47.32" x2="22.11" y2="52.51"/><line class="c" x1="17.42" y1="47.32" x2="17.42" y2="52.51"/><line class="c" x1="12.74" y1="47.32" x2="12.74" y2="52.51"/><line class="c" x1="8.05" y1="47.32" x2="8.05" y2="52.51"/></svg>