<svg xmlns="http://www.w3.org/2000/svg" viewBox="0 0 100 100"><defs><style>.a,.c,.d{fill:none;stroke:#fff;stroke-miterlimit:10;}.a{stroke-width:3.48px;stroke-dasharray:0 79.23;}.b{fill:#fff;}.c{stroke-width:1.27px;}.d{stroke-width:1.67px;}</style></defs><title>length-icon</title><line class="a" x1="63.12" y1="56.06" x2="93.84" y2="56.06"/><rect class="b" x="5.19" y="35.98" width="1.7" height="28.04"/><rect class="b" x="93.55" y="35.98" width="1.7" height="28.04"/><line class="c" x1="88.21" y1="54.48" x2="88.21" y2="64.02"/><line class="d" x1="82.01" y1="47.56" x2="82.01" y2="64.02"/><line class="c" x1="75.81" y1="54.48" x2="75.81" y2="64.02"/><line class="d" x1="69.62" y1="47.56" x2="69.62" y2="64.02"/><line class="c" x1="63.42" y1="54.48" x2="63.42" y2="64.02"/><line class="d" x1="57.22" y1="47.56" x2="57.22" y2="64.02"/><line class="c" x1="51.02" y1="54.48" x2="51.02" y2="64.02"/><line class="d" x1="44.82" y1="47.56" x2="44.82" y2="64.02"/><line class="c" x1="38.62" y1="54.48" x2="38.62" y2="64.02"/><line class="d" x1="32.42" y1="47.56" x2="32.42" y2="64.02"/><line class="c" x1="26.22" y1="54.48" x2="26.22" y2="64.02"/><line class="d" x1="20.03" y1="47.56" x2="20.03" y2="64.02"/><line class="c" x1="13.83" y1="54.48" x2="13.83" y2="64.02"/><rect class="b" x="5.19" y="62.4" width="90.06" height="1.62"/></svg>