<svg xmlns="http://www.w3.org/2000/svg" viewBox="0 0 144 144"><defs><style>.a{fill:#fff;}.b{fill:#0da8dc;}.c{fill:#1784c5;}.d{fill:#37ba9c;}.e{fill:#6ebd47;}.f{fill:#21a051;}.g{fill:#1a8446;}.h{fill:#3bbb9d;}.i{fill:#91c576;}</style></defs><title>logo</title><circle class="a" cx="72" cy="72.72" r="58.27"/><path class="b" d="M34.15,97.69a.48.48,0,0,1,.49.22A47,47,0,0,0,48.75,109c1.23.63,2.48,1.24,3.76,1.75,1.53.6,3.1,1.13,4.68,1.6s2.92.77,4.4,1.07c1.13.23,2.27.37,3.42.52a50.92,50.92,0,0,0,8.89.26c1.62-.07,3.23-.32,4.84-.5a35.28,35.28,0,0,0,5.62-1.18,42.16,42.16,0,0,0,5.31-1.89,48.1,48.1,0,0,0,7.23-3.87A49.58,49.58,0,0,0,104,101.2a44.47,44.47,0,0,0,7.71-9.67,37.59,37.59,0,0,0,3.29-7.2,34.57,34.57,0,0,0,1.24-4.74,32.27,32.27,0,0,0-1.68-17.51,35.24,35.24,0,0,0-2.94-6,28.59,28.59,0,0,0-7.4-8,36.84,36.84,0,0,0-8.62-4.63,44.06,44.06,0,0,0-6-1.9c-2.06-.48-4.14-.88-6.23-1.24-1.46-.25-2.93-.42-4.41-.57-1.63-.17-3.26-.28-4.92-.45.41-.13.81-.28,1.22-.38,1.47-.36,2.93-.74,4.41-1,1.19-.24,2.4-.4,3.6-.54a37.59,37.59,0,0,1,6-.2,39.21,39.21,0,0,1,5.48.62,36.06,36.06,0,0,1,8.1,2.51,35.29,35.29,0,0,1,8.46,5.31,34.79,34.79,0,0,1,8.62,10.86,32,32,0,0,1,2.31,5.9A28.55,28.55,0,0,1,123.1,67a30.31,30.31,0,0,1,.16,5c-.09,1.49-.26,3-.43,4.47a34.6,34.6,0,0,1-1.36,6.15,42.46,42.46,0,0,1-2.64,6.63A48.6,48.6,0,0,1,112,99.51a50.49,50.49,0,0,1-9.44,8.43A51.36,51.36,0,0,1,93,113.13a48.2,48.2,0,0,1-6.35,2.17c-1.72.45-3.45.83-5.2,1.13a42.54,42.54,0,0,1-6,.62c-1.26,0-2.53.16-3.79.13-1.93,0-3.86-.19-5.79-.32a40.16,40.16,0,0,1-6.28-1,43.06,43.06,0,0,1-5.37-1.6,39.54,39.54,0,0,1-8-4,38,38,0,0,1-5.23-4.13,41.38,41.38,0,0,1-6.64-8.1A4.38,4.38,0,0,0,34.15,97.69Z"/><path class="c" d="M29.5,84.32l.56,1a49.07,49.07,0,0,0,7.26,9.79,39.85,39.85,0,0,0,10.89,8.17,31.73,31.73,0,0,0,7.39,2.66,45,45,0,0,0,7.41,1,45.83,45.83,0,0,0,15.09-1.68A41.75,41.75,0,0,0,91.28,99a33.86,33.86,0,0,0,10.27-11.64,30.8,30.8,0,0,0,3.08-8.84,30.23,30.23,0,0,0,.48-7.18A28,28,0,0,0,99,54.92a28.42,28.42,0,0,0-9.25-7.48,37.16,37.16,0,0,0-10-3.47c-1.36-.27-2.77-.45-4.15-.67a.39.39,0,0,1-.25-.16c.59-.13,1.18-.27,1.77-.38a26.82,26.82,0,0,1,6.25-.37,29.91,29.91,0,0,1,7.54,1.38,33.76,33.76,0,0,1,10.86,5.74,31.7,31.7,0,0,1,10.18,13.61,28.52,28.52,0,0,1,1.75,7.42,29.62,29.62,0,0,1,.15,4.3,33,33,0,0,1-1,6.83,34.94,34.94,0,0,1-5,11,41,41,0,0,1-6.62,7.54,47.53,47.53,0,0,1-9.76,6.73,49.8,49.8,0,0,1-9,3.63,48.24,48.24,0,0,1-7.12,1.53,44.11,44.11,0,0,1-7.1.42,41.84,41.84,0,0,1-24.15-8.45A43.81,43.81,0,0,1,31,88.24c-.58-1.17-1.06-2.39-1.58-3.59a1.18,1.18,0,0,1,0-.33Zm79-.64a2.11,2.11,0,1,0,.2-4.22h-.2a2.11,2.11,0,1,0-.2,4.22Zm-3.37,4.08a2.06,2.06,0,0,0-2.13,2s0,0,0,.07A2.11,2.11,0,0,0,105.05,92a2.08,2.08,0,0,0,2.12-2s0,0,0,0a2,2,0,0,0-2-2.08h-.07Zm-5.29,7a1.9,1.9,0,1,0,1.9,1.89h0a1.91,1.91,0,0,0-1.87-1.87Zm9.43-23.83a1.9,1.9,0,1,0,1.9,1.91,1.9,1.9,0,0,0-1.9-1.91h0Zm.54-6a1.73,1.73,0,0,0-1.7-1.71,1.77,1.77,0,0,0-1.74,1.72,1.75,1.75,0,0,0,1.74,1.72A1.7,1.7,0,0,0,109.8,65s0,0,0,0ZM93.75,100a1.69,1.69,0,1,0,.06,0Zm-7.07,7.26a1.54,1.54,0,1,0,.05-3.08,1.56,1.56,0,0,0-1.57,1.52,1.53,1.53,0,0,0,1.5,1.56Zm18.38-47.45a1.51,1.51,0,0,0,1.55-1.47s0,0,0-.05a1.54,1.54,0,1,0-3.08,0A1.5,1.5,0,0,0,105,59.85h0Zm-3.18-7.56a1.33,1.33,0,0,0-2.66,0,1.38,1.38,0,0,0,1.31,1.33,1.36,1.36,0,0,0,1.35-1.34ZM79.4,109.48a1.28,1.28,0,0,0,1.32-1.25v0a1.32,1.32,0,1,0-2.63,0,1.27,1.27,0,0,0,1.26,1.27h.05Zm-6.45,0a.91.91,0,0,0-.83-1H72a1,1,0,0,0-1,.91s0,0,0,0a1,1,0,1,0,2,0ZM93.86,48a1,1,0,0,0,.94,1h0a1,1,0,0,0,0-2,1,1,0,0,0-1,1s0,0,0,0ZM65.17,108.6a.87.87,0,0,0-.91.83v0a.91.91,0,1,0,1.78,0,.87.87,0,0,0-.85-.89Z"/><path class="d" d="M35.88,86.09a1.28,1.28,0,0,1,.3.08,12.42,12.42,0,0,0,4,1.43,31.14,31.14,0,0,0,5.66.64c2.5.06,5,.12,7.49,0a35.49,35.49,0,0,0,7-.91,19.08,19.08,0,0,0,6.47-2.59,7.66,7.66,0,0,0,1.78-1.63,2.46,2.46,0,0,0-.36-3.63A7.5,7.5,0,0,0,65.89,78c-1-.39-2-.7-2.95-1l-.45-.15H93.58c-.07.45-.11.86-.2,1.26a22.69,22.69,0,0,1-3.82,8.34,25.57,25.57,0,0,1-10.65,8.34,36.43,36.43,0,0,1-7.76,2.38,42.85,42.85,0,0,1-6.44.79c-1,0-2.06.16-3.08.13-1.63-.05-3.27-.2-4.9-.32a27.84,27.84,0,0,1-5.23-1,30.35,30.35,0,0,1-8-3.44,25.27,25.27,0,0,1-5.41-4.42c-.74-.81-1.39-1.72-2.08-2.58A2,2,0,0,1,35.88,86.09Z"/><path class="e" d="M29.59,78.79c.45.91.86,1.82,1.33,2.68a41,41,0,0,0,5.38,7.89,35.61,35.61,0,0,0,8.93,7.51,29.13,29.13,0,0,0,5.65,2.55l3.41,1.14a18.51,18.51,0,0,0,3.27.77,27.72,27.72,0,0,0,5.21.42,19.31,19.31,0,0,0,3.63-.56l4.54-1.13a4.57,4.57,0,0,1,2.36.13A3.73,3.73,0,0,0,76,99.85a27.23,27.23,0,0,0,3.47-2.2l3.35-2.37c.1-.07.21-.13.32-.2a1.73,1.73,0,0,1,1.9-.06,2.19,2.19,0,0,0,1.88.26,2.27,2.27,0,0,0,.57-.3,9.28,9.28,0,0,0,3.4-4.68c.31-.91.58-1.87.93-2.79a1.82,1.82,0,0,1,2-1.36,9.34,9.34,0,0,0,1.49-.07,1.46,1.46,0,0,0,1.18-.81,7,7,0,0,0,.83-2.95,12.82,12.82,0,0,0-.84-4.76c-.33-1-.66-1.91-1-2.88a3.43,3.43,0,0,1-.13-1.57c.08-.52.3-.78.95-.91.29-.07.58-.12.87-.2a2,2,0,0,0,1.59-2,4.32,4.32,0,0,0-.88-3.34q-1.42-1.82-2.81-3.63a8.17,8.17,0,0,1-1.43-2.39,2.6,2.6,0,0,1,.07-1.33.66.66,0,0,1,.25-.32c.17-.14.36-.25.54-.37A1.16,1.16,0,0,0,95,57.42,2.62,2.62,0,0,0,93.3,55.5c-.88-.39-1.79-.73-2.66-1.14a4,4,0,0,1-1.5-1.23A12.58,12.58,0,0,0,85,49.77l-2.55-1.36-.36-.23a3.29,3.29,0,0,1,.54-.15,6.58,6.58,0,0,1,2.17.25,24.8,24.8,0,0,1,8.23,4A19.92,19.92,0,0,1,97,55.9a20.34,20.34,0,0,1,1.61,2.4,32.81,32.81,0,0,1,3.12,6.81,22.77,22.77,0,0,1,1.13,5.48,42.84,42.84,0,0,1,.07,4.4,20.15,20.15,0,0,1-.64,4.06,30.76,30.76,0,0,1-5.62,11.35,43.73,43.73,0,0,1-5.65,6,28.34,28.34,0,0,1-7.44,4.68,41,41,0,0,1-13.84,3.47c-2.07.13-4.15.14-6.23.06a36.36,36.36,0,0,1-4.13-.5A40.54,40.54,0,0,1,40,95.18a33.76,33.76,0,0,1-10.51-16,1.42,1.42,0,0,1,0-.23Z"/><path class="f" d="M30.58,59.38c.22-.09.15-.28.15-.45A13.21,13.21,0,0,1,30.92,56a4.2,4.2,0,0,1,.58-1.56c0,.93,0,1.87,0,2.8a23,23,0,0,0,.55,5,14.16,14.16,0,0,0,6.75,9,19.92,19.92,0,0,0,7.55,2.46,18.78,18.78,0,0,0,11.12-1.91,9.13,9.13,0,0,0,3.93-3.49,6.74,6.74,0,0,0,.34-.67.73.73,0,0,0-.06-.18,2.27,2.27,0,0,0,.56-1.39,22,22,0,0,0-.14-2.42,11.66,11.66,0,0,0-1.6-3.86,11.05,11.05,0,0,0-3-3.18l-1.25-.95-.1.07a4.74,4.74,0,0,0,.09.57,15.34,15.34,0,0,1,.65,3A7,7,0,0,1,56,63.86a5.29,5.29,0,0,1-2.53,2.2l-.31.1a.92.92,0,0,0-.29,0l.39-.43a9.58,9.58,0,0,0,2.08-3,5.73,5.73,0,0,0,.43-2.8c-.12-1.18-.31-2.35-.45-3.53a9,9,0,0,1-.06-1.21c0-.33.14-.45.45-.43a3.63,3.63,0,0,1,1.07.31,9.66,9.66,0,0,1,2.72,2.06,13.18,13.18,0,0,1,2.79,4.06A8.35,8.35,0,0,1,63,65.55,4.32,4.32,0,0,0,63,66l-.2.94c-.16.4-.3.82-.49,1.21a11.51,11.51,0,0,1-5.53,5.57A15,15,0,0,1,51.93,75c-1.42.18-2.85.26-4.32.39l.08.37a.6.6,0,0,1-.35.78l-.18,0a.94.94,0,0,1-.91-.21,7.93,7.93,0,0,1-.83-.94.69.69,0,0,0-.52-.33,18.28,18.28,0,0,1-5.42-1.53,14.15,14.15,0,0,1-7.42-8.09,20.85,20.85,0,0,1-1.23-5.36,4.54,4.54,0,0,0-.18-.69A.11.11,0,0,0,30.58,59.38Z"/><path class="g" d="M30.58,59.38a.11.11,0,0,1,.06.07,4.35,4.35,0,0,1-1.56,2l-.12.08c-.5.29-.74.17-.85-.39-.29-1.44-.55-2.88-.91-4.31a44.19,44.19,0,0,0-2.15-6.35c-.4-1-.39-1,.58-1.36l4.42-1.65a9.92,9.92,0,0,0,3.09-1.92A30.13,30.13,0,0,1,39,41.47a20.8,20.8,0,0,1,7-2.27,17,17,0,0,1,10.55,1.9,12.92,12.92,0,0,1,5,4.5,13.36,13.36,0,0,1,.74,1.46c.1.21,0,.34-.23.43-1.92.56-3.82,1.14-5.73,1.72-.4.12-.79.26-1.21.4a.45.45,0,0,1,.13-.63l0,0a3.52,3.52,0,0,1,.85-.48c1.54-.54,3.09-1.06,4.64-1.58l.2-.07a2.64,2.64,0,0,0-.15-.3,13.17,13.17,0,0,0-7.63-5.75,16.47,16.47,0,0,0-6-.49A23.25,23.25,0,0,0,36.8,44.15a21.1,21.1,0,0,0-4,3.18,1.46,1.46,0,0,1-.51.32L26.2,50.09l-.16.06a35.27,35.27,0,0,1,2.72,10.64A7.47,7.47,0,0,0,30.58,59.38Z"/><path class="h" d="M40.27,79.26c-.54.22-1.11.4-1.62.66a7.11,7.11,0,0,0-1.32.87,1.18,1.18,0,0,0-.18,1.67l.14.15A4.89,4.89,0,0,0,39,83.67a18.56,18.56,0,0,0,4.37,1.14,38.19,38.19,0,0,0,7.13.45,37.08,37.08,0,0,0,4.75-.42,19.3,19.3,0,0,0,4-1A10.22,10.22,0,0,0,61,82.92a2.39,2.39,0,0,0,.66-.82.65.65,0,0,0-.18-.88,6,6,0,0,0-1.08-.71,18.91,18.91,0,0,0-4.08-1.22l-1-.2A1.29,1.29,0,0,1,55,79a23.94,23.94,0,0,1,5.63.25,6.33,6.33,0,0,1,2.86,1.08,2.87,2.87,0,0,1,.76.86,1.68,1.68,0,0,1-.56,2.27,8.94,8.94,0,0,1-1.73,1,20.93,20.93,0,0,1-5.4,1.42,37.63,37.63,0,0,1-5.78.48c-1.51,0-3,0-4.54,0s-3.1-.32-4.64-.51a20.5,20.5,0,0,1-4-1,7.81,7.81,0,0,1-2.65-1.32l-.11-.09c-1-.95-.93-1.65,0-2.41a8.36,8.36,0,0,1,2.87-1.42,11.73,11.73,0,0,1,1.5-.35,9.08,9.08,0,0,1,1.05-.07S40.27,79.22,40.27,79.26Z"/><path class="g" d="M62.25,66.12a2.27,2.27,0,0,1-.56,1.39,15.64,15.64,0,0,1-6.21,1.43,12.71,12.71,0,0,1-5.23-.82,8.78,8.78,0,0,1-5.73-7.56,8.41,8.41,0,0,1,1.62-6.23,8,8,0,0,1,4.08-2.72,16.59,16.59,0,0,1,4.46-.76c1.26,0,2.53,0,3.79,0a.41.41,0,0,1,.45.55c0,.09-.27.12-.4.11a23.68,23.68,0,0,0-6.14.45,11,11,0,0,0-3.77,1.47A5.45,5.45,0,0,0,46.45,56a10.05,10.05,0,0,0-.83,4.33A7.06,7.06,0,0,0,48.5,65.7a10.66,10.66,0,0,0,5.28,2.12,14.74,14.74,0,0,0,7.87-1.11C61.93,66.58,62.19,66.46,62.25,66.12Z"/><path class="g" d="M62.81,67,63,66a24.62,24.62,0,0,0,4.13-3,39,39,0,0,0,4.31-4.16,3.63,3.63,0,0,1,2-1.1,15.5,15.5,0,0,1,6.09-.2,3.43,3.43,0,0,1,.88.3c.17.08.38.18.32.45h0A8.24,8.24,0,0,0,79.35,58c-1.4,0-2.81-.05-4.21,0a8.47,8.47,0,0,0-1.82.36,3.18,3.18,0,0,0-.71.42,1.11,1.11,0,0,0,.78.52,12.8,12.8,0,0,0,3.1.39,12,12,0,0,0,5.12-.91,1.13,1.13,0,0,1,1.42.31c.75.81,1.49,1.65,2.3,2.4a25.16,25.16,0,0,0,8.14,5.16.25.25,0,0,1,.15.16c-.2,0-.39,0-.59-.07a16,16,0,0,1-6.47-3.14A23.22,23.22,0,0,1,82.94,60a1.27,1.27,0,0,0-1.57-.45,13.68,13.68,0,0,1-6.28.62c-1-.15-2-.45-3-.68-.54.52-1.13,1.12-1.75,1.69a47.74,47.74,0,0,1-6,4.88C63.82,66.4,63.31,66.67,62.81,67Z"/><path class="h" d="M54.84,79.92a5.52,5.52,0,0,1,2.58.56h0c.91.52.95,1.22.09,1.82a7.26,7.26,0,0,1-2.61,1,26.38,26.38,0,0,1-6.81.54A21,21,0,0,1,43,83.08a15.93,15.93,0,0,1-1.85-.76,1.33,1.33,0,0,1-.4-.32.68.68,0,0,1-.2-.81.91.91,0,0,1,.91-.53c-.25.71.18,1,.7,1.33a7.75,7.75,0,0,0,2.72.81c.91.13,1.82.21,2.7.29.48,0,1,.07,1.45.08a20,20,0,0,0,5.21-.45,7,7,0,0,0,1.61-.61c.65-.35.68-1,.1-1.44-.33-.28-.7-.51-1.06-.76Z"/><path class="g" d="M45.15,70.09c-.21-.07-.43-.13-.64-.21a9.89,9.89,0,0,1-2.61-1.61,12.65,12.65,0,0,1-3.5-4.33,15.43,15.43,0,0,1-1.57-6.68,5.9,5.9,0,0,1,1-3.36,3.22,3.22,0,0,1,.24-.28l.11.06c-.1.38-.2.76-.29,1.14a11.86,11.86,0,0,0,.83,7.94,15.75,15.75,0,0,0,5.79,6.65c.25.17.5.36.74.54Z"/><path class="g" d="M45.36,52a4.33,4.33,0,0,1-.51.45q-1,.67-2.11,1.3a1,1,0,0,1-1.18,0,6.81,6.81,0,0,1-2.81-3.18,1.82,1.82,0,0,1-.1-.26c-.26-.91-.09-1.28.79-1.57a10.72,10.72,0,0,1,5.9-.3,2.5,2.5,0,0,1,1.19.63l-1.82-.1a17.76,17.76,0,0,0-3.93.12,3.85,3.85,0,0,0-.91.27.57.57,0,0,0-.38.7h0A3.63,3.63,0,0,0,42.27,53a1.82,1.82,0,0,0,.86-.12c.58-.21,1.15-.49,1.72-.73l.45-.18Z"/><path class="g" d="M55.67,45.52a.65.65,0,0,1-.67.59.82.82,0,0,1-.8-.75.63.63,0,0,1,.67-.58h0A.77.77,0,0,1,55.67,45.52Z"/><path class="g" d="M70.46,63a6.57,6.57,0,0,1,.54-.67,3.36,3.36,0,0,0,1-1.47c.09-.33.21-.35.59-.23a1.72,1.72,0,0,1-.19.5,12.34,12.34,0,0,1-1,1.08c-.29.29-.63.55-.94.82Z"/><path class="g" d="M77.77,61.21c.45-.08.58-.05.64.26a1.82,1.82,0,0,1,0,.81,1.87,1.87,0,0,0-.15,1c.07.29-.07.53-.4.76,0-.17,0-.26.06-.36A2.27,2.27,0,0,0,78,63a1.09,1.09,0,0,1,.13-.91c.05-.08,0-.26,0-.37A3.91,3.91,0,0,0,77.77,61.21Z"/><path class="g" d="M72.9,63.38a2.51,2.51,0,0,1,.27-.62,2.39,2.39,0,0,0,.43-1.07,2.56,2.56,0,0,1,.18-.57c0-.07.16-.1.25-.15s.15.21.13.29c-.08.37-.2.74-.3,1.11a.45.45,0,0,1-.1.15l-.76.87Z"/><path class="g" d="M80,60.76a.52.52,0,0,1,.48.48,1.07,1.07,0,0,0,.15.51,1.7,1.7,0,0,1,.36,1.3,2.59,2.59,0,0,1-.06.61,7.69,7.69,0,0,0-.23-.91,6.92,6.92,0,0,0-.51-1.08A1.17,1.17,0,0,1,80,60.76Z"/><path class="g" d="M76.23,61.26c-.13.57.06,1.14-.31,1.65a5.31,5.31,0,0,0-.42.91.66.66,0,0,1-.05-.77,2.65,2.65,0,0,0,.4-1.41C75.86,61.42,75.9,61.27,76.23,61.26Z"/><path class="g" d="M81.8,60.45c.31-.13.49-.05.57.24a4.9,4.9,0,0,0,1,1.62,1.69,1.69,0,0,1-1-.77A2,2,0,0,1,81.8,60.45Z"/><path class="i" d="M29.59,78.79l-.17.19A3.88,3.88,0,0,1,29,77.69l.12,0Z"/><polygon class="g" points="80.71 58.25 80.73 58.26 80.72 58.25 80.71 58.25"/><path class="h" d="M54.84,79.91h0v0Z"/><path class="a" d="M72,139.72a67,67,0,1,1,67-67A67.07,67.07,0,0,1,72,139.72ZM72,8.45a64.27,64.27,0,1,0,64.27,64.27A64.35,64.35,0,0,0,72,8.45Z"/></svg>