<svg id="starfish" xmlns="http://www.w3.org/2000/svg" viewBox="0 0 1130.62 344.14"><defs><style>.cls-1{fill:#fff;}.cls-2{fill:#0da8dc;}.cls-2,.cls-3,.cls-4,.cls-5,.cls-6,.cls-7,.cls-8,.cls-9{fill-rule:evenodd;}.cls-3{fill:#1784c5;}.cls-4{fill:#37ba9c;}.cls-5{fill:#6ebd47;}.cls-6{fill:#21a051;}.cls-7{fill:#1a8446;}.cls-8{fill:#3bbb9d;}.cls-9{fill:#91c576;}</style></defs><title>Artboard 3</title><circle class="cls-1" cx="186.16" cy="172.07" r="137.91"/><path class="cls-2" d="M99,227.81a1.05,1.05,0,0,1,1.08.49,103.59,103.59,0,0,0,31.1,24.46c2.71,1.38,5.46,2.74,8.29,3.86,3.38,1.33,6.83,2.5,10.31,3.53,3.19.94,6.44,1.69,9.69,2.36,2.48.51,5,.81,7.53,1.14a112.2,112.2,0,0,0,19.59.57c3.56-.16,7.11-.7,10.66-1.1a77.75,77.75,0,0,0,12.38-2.6,92.9,92.9,0,0,0,11.71-4.17,106,106,0,0,0,15.94-8.53,109.25,109.25,0,0,0,15.54-12.27,98,98,0,0,0,17-21.31,82.84,82.84,0,0,0,7.25-15.86,76.18,76.18,0,0,0,2.73-10.45,70.66,70.66,0,0,0,1-17.46,70.56,70.56,0,0,0-4.7-21.13,77.65,77.65,0,0,0-6.47-13.3,63,63,0,0,0-16.31-17.65,81.19,81.19,0,0,0-19-10.21A97.09,97.09,0,0,0,221.09,104c-4.54-1.05-9.13-1.93-13.73-2.73-3.21-.56-6.46-.92-9.71-1.26-3.59-.37-7.19-.62-10.84-1,.9-.28,1.78-.62,2.69-.84,3.23-.79,6.45-1.63,9.71-2.28,2.62-.53,5.29-.89,7.94-1.2a82.83,82.83,0,0,1,13.2-.45,86.41,86.41,0,0,1,12.08,1.36,79.47,79.47,0,0,1,17.85,5.52,77.77,77.77,0,0,1,18.65,11.7,76.67,76.67,0,0,1,19,23.92,70.54,70.54,0,0,1,5.08,13,62.91,62.91,0,0,1,2,10.5,66.79,66.79,0,0,1,.35,11c-.2,3.29-.57,6.57-.94,9.85a76.24,76.24,0,0,1-3,13.56,93.56,93.56,0,0,1-5.82,14.6,107.09,107.09,0,0,1-15.12,22.58,111.25,111.25,0,0,1-20.81,18.58,113.17,113.17,0,0,1-21,11.43,106.22,106.22,0,0,1-14,4.79c-3.78,1-7.61,1.83-11.46,2.49a93.73,93.73,0,0,1-13.12,1.37c-2.78.08-5.57.36-8.35.29-4.26-.11-8.51-.42-12.76-.7a88.5,88.5,0,0,1-13.83-2.18,94.88,94.88,0,0,1-11.83-3.52,87.12,87.12,0,0,1-17.53-8.78,83.71,83.71,0,0,1-11.53-9.09,91.18,91.18,0,0,1-14.64-17.85C99.48,228.44,99.31,228.2,99,227.81Z"/><path class="cls-3" d="M88.76,198.35,90,200.57a108.14,108.14,0,0,0,16,21.57,87.81,87.81,0,0,0,24,18A69.92,69.92,0,0,0,146.29,246a99.1,99.1,0,0,0,16.33,2.21,101,101,0,0,0,33.26-3.71,92,92,0,0,0,29-13.85A74.61,74.61,0,0,0,247.51,205a67.86,67.86,0,0,0,6.78-19.49,66.61,66.61,0,0,0,1.05-15.83,61.69,61.69,0,0,0-13.41-36.11,62.63,62.63,0,0,0-20.39-16.48,81.88,81.88,0,0,0-22.12-7.64c-3-.6-6.1-1-9.15-1.47a.85.85,0,0,1-.56-.36c1.3-.28,2.59-.6,3.9-.84a59.11,59.11,0,0,1,13.77-.82A65.9,65.9,0,0,1,224,109a74.39,74.39,0,0,1,23.92,12.65,69.85,69.85,0,0,1,22.44,30A62.84,62.84,0,0,1,274.21,168a65.28,65.28,0,0,1,.33,9.48,72.66,72.66,0,0,1-2.24,15.06,77,77,0,0,1-11,24.18,90.28,90.28,0,0,1-14.59,16.62,104.74,104.74,0,0,1-21.5,14.82,109.75,109.75,0,0,1-19.83,8,106.31,106.31,0,0,1-15.7,3.37,97.2,97.2,0,0,1-15.64.93,92.2,92.2,0,0,1-53.22-18.61A96.55,96.55,0,0,1,92.09,207c-1.27-2.58-2.33-5.27-3.48-7.92a2.61,2.61,0,0,1-.09-.72Zm174-1.41a4.65,4.65,0,1,0,0-9.29,4.65,4.65,0,1,0,0,9.29Zm-7.42,9a4.55,4.55,0,0,0-4.7,4.56,4.66,4.66,0,0,0,4.6,4.7,4.59,4.59,0,0,0,4.67-4.61A4.48,4.48,0,0,0,255.39,206Zm-11.65,15.35a4.2,4.2,0,0,0-4.22,4.16,4.2,4.2,0,1,0,8.4,0A4.21,4.21,0,0,0,243.74,221.32Zm20.78-52.52a4.19,4.19,0,1,0,4.19,4.2A4.15,4.15,0,0,0,264.51,168.8Zm1.18-13.16a3.82,3.82,0,0,0-3.74-3.76,3.91,3.91,0,0,0-3.84,3.8,3.85,3.85,0,0,0,3.83,3.78A3.75,3.75,0,0,0,265.69,155.64ZM230.33,233a3.76,3.76,0,1,0,3.72,3.86A3.73,3.73,0,0,0,230.33,233ZM214.76,249a3.39,3.39,0,0,0,.12-6.78,3.43,3.43,0,0,0-3.46,3.35A3.37,3.37,0,0,0,214.76,249Zm40.5-104.55a3.33,3.33,0,0,0,3.42-3.35,3.39,3.39,0,1,0-6.79,0A3.31,3.31,0,0,0,255.25,144.44Zm-7-16.65a3,3,0,0,0-2.87-2.92,3,3,0,0,0-3,2.93,3.05,3.05,0,0,0,2.89,2.93A3,3,0,0,0,248.26,127.79Zm-49.56,126a2.83,2.83,0,0,0,2.9-2.82,2.9,2.9,0,1,0-5.79,0A2.79,2.79,0,0,0,198.7,253.78Zm-14.22,0a2,2,0,0,0-2.1-2.17,2.1,2.1,0,0,0-2.2,2.1,2.15,2.15,0,1,0,4.31.08Zm46.1-135.44a2.12,2.12,0,0,0,2.12,2.17,2.18,2.18,0,1,0,0-4.36A2.12,2.12,0,0,0,230.57,118.38ZM167.36,251.86a1.92,1.92,0,0,0-2,1.9,2,2,0,1,0,3.93.07A1.92,1.92,0,0,0,167.36,251.86Z"/><path class="cls-4" d="M102.82,202.25a2.82,2.82,0,0,1,.67.18,27.36,27.36,0,0,0,8.88,3.15A68.61,68.61,0,0,0,124.85,207c5.5.13,11,.27,16.51.1a78.2,78.2,0,0,0,15.51-2c5-1.18,9.92-2.76,14.25-5.7a16.89,16.89,0,0,0,3.92-3.6c2.24-2.87,1.69-5.59-.79-8a16.53,16.53,0,0,0-5.3-3.31c-2.13-.86-4.33-1.54-6.5-2.3l-1-.34h68.5c-.15,1-.24,1.89-.44,2.77A50,50,0,0,1,221.1,203a56.35,56.35,0,0,1-23.46,18.37,80.28,80.28,0,0,1-17.09,5.25,94.43,94.43,0,0,1-14.2,1.75c-2.26.09-4.53.35-6.79.28-3.6-.12-7.2-.43-10.79-.7a61.35,61.35,0,0,1-11.52-2.16,66.87,66.87,0,0,1-17.62-7.58,55.69,55.69,0,0,1-11.93-9.73c-1.64-1.79-3.07-3.78-4.59-5.68A4.29,4.29,0,0,1,102.82,202.25Z"/><path class="cls-5" d="M88.94,186.17c1,2,1.9,4,2.92,5.9a90.38,90.38,0,0,0,11.85,17.39A78.47,78.47,0,0,0,123.38,226a64.19,64.19,0,0,0,12.45,5.63c2.51.82,5,1.68,7.51,2.51a40.79,40.79,0,0,0,7.2,1.7,61.09,61.09,0,0,0,11.49.93,42.55,42.55,0,0,0,8-1.23l10-2.48a10.07,10.07,0,0,1,5.19.29,8.23,8.23,0,0,0,6.08-.77,60,60,0,0,0,7.64-4.85c2.47-1.73,4.93-3.49,7.39-5.23.22-.16.47-.29.7-.43a3.82,3.82,0,0,1,4.18-.14,4.82,4.82,0,0,0,4.14.58,5,5,0,0,0,1.26-.67,20.45,20.45,0,0,0,7.5-10.32c.69-2,1.28-4.13,2.05-6.14a4,4,0,0,1,4.31-3,20.59,20.59,0,0,0,3.29-.16,3.21,3.21,0,0,0,2.6-1.78,15.42,15.42,0,0,0,1.84-6.49,28.26,28.26,0,0,0-1.86-10.48c-.72-2.11-1.45-4.21-2.11-6.34a7.55,7.55,0,0,1-.29-3.45c.18-1.14.66-1.71,2.09-2,.63-.15,1.28-.26,1.91-.43,2.33-.62,3.21-1.94,3.5-4.3a9.51,9.51,0,0,0-1.94-7.36q-3.13-4-6.19-8a18,18,0,0,1-3.16-5.27,5.74,5.74,0,0,1,.15-2.93,1.46,1.46,0,0,1,.56-.7c.37-.3.79-.54,1.18-.82a2.55,2.55,0,0,0,1-2.79,5.78,5.78,0,0,0-3.7-4.23c-1.94-.87-3.94-1.6-5.86-2.51a8.92,8.92,0,0,1-3.31-2.71,27.73,27.73,0,0,0-9.11-7.41l-5.61-3c-.2-.11-.39-.25-.8-.51a7.25,7.25,0,0,1,1.19-.33,14.5,14.5,0,0,1,4.79.55,54.64,54.64,0,0,1,18.14,8.79,43.89,43.89,0,0,1,8.69,8A44.82,44.82,0,0,1,241,141a72.3,72.3,0,0,1,6.87,15,50.18,50.18,0,0,1,2.48,12.07,94.4,94.4,0,0,1,.15,9.69,44.4,44.4,0,0,1-1.42,8.94,67.79,67.79,0,0,1-12.39,25A96.37,96.37,0,0,1,224.24,225a62.44,62.44,0,0,1-16.39,10.31,90.41,90.41,0,0,1-30.5,7.64c-4.56.28-9.15.3-13.72.14a80.11,80.11,0,0,1-9.1-1.11,89.34,89.34,0,0,1-42.74-19.69A74.39,74.39,0,0,1,88.64,187.1a3.14,3.14,0,0,1-.07-.51Z"/><path class="cls-6" d="M91.13,143.39c.48-.2.34-.62.33-1a29.1,29.1,0,0,1,.42-6.37,9.25,9.25,0,0,1,1.27-3.44c0,2.05-.07,4.11,0,6.16a50.65,50.65,0,0,0,1.21,11,31.2,31.2,0,0,0,14.87,19.82,43.89,43.89,0,0,0,16.63,5.43,41.38,41.38,0,0,0,24.51-4.2,20.11,20.11,0,0,0,8.67-7.69,14.85,14.85,0,0,0,.75-1.47c0-.1-.09-.27-.14-.4a5,5,0,0,0,1.23-3.06,48.5,48.5,0,0,0-.3-5.34,25.7,25.7,0,0,0-3.53-8.51,24.36,24.36,0,0,0-6.7-7l-2.76-2.09-.23.15a10.45,10.45,0,0,0,.2,1.26A33.8,33.8,0,0,1,149,143.2c.28,3.51.2,7-1.79,10.06a11.66,11.66,0,0,1-5.58,4.85,6.56,6.56,0,0,1-.69.21c-.13,0-.26,0-.63.1.39-.42.62-.68.87-.94a21.11,21.11,0,0,0,4.58-6.67,12.63,12.63,0,0,0,.94-6.16c-.27-2.6-.69-5.18-1-7.77a19.93,19.93,0,0,1-.14-2.67c0-.73.31-1,1-.95a8,8,0,0,1,2.35.68,21.28,21.28,0,0,1,6,4.53,29.05,29.05,0,0,1,6.15,8.95,18.4,18.4,0,0,1,1.49,9.57,9.52,9.52,0,0,0,0,1l-.43,2.07c-.35.89-.67,1.8-1.07,2.67A25.37,25.37,0,0,1,148.87,175a33,33,0,0,1-10.69,2.89c-3.13.39-6.29.57-9.53.85l.17.82a1.33,1.33,0,0,1-1.17,1.8,2.07,2.07,0,0,1-2-.47,17.47,17.47,0,0,1-1.83-2.08,1.53,1.53,0,0,0-1.15-.72,40.29,40.29,0,0,1-11.94-3.37,31.18,31.18,0,0,1-16.34-17.83,45.94,45.94,0,0,1-2.72-11.81,10,10,0,0,0-.39-1.52A.25.25,0,0,0,91.13,143.39Z"/><path class="cls-7" d="M91.13,143.39a.25.25,0,0,1,.13.15c-.55,2-2,3.24-3.43,4.51a1.78,1.78,0,0,1-.26.17c-1.1.65-1.63.38-1.87-.85-.63-3.17-1.22-6.34-2-9.49a97.37,97.37,0,0,0-4.73-14c-.88-2.17-.87-2.19,1.28-3,3.24-1.22,6.5-2.41,9.74-3.64A21.86,21.86,0,0,0,96.8,113a66.39,66.39,0,0,1,12.86-9.08,45.84,45.84,0,0,1,15.52-5,37.36,37.36,0,0,1,23.24,4.19,28.47,28.47,0,0,1,11.1,9.92,29.43,29.43,0,0,1,1.62,3.21c.22.47.11.76-.51.95-4.22,1.23-8.42,2.52-12.62,3.8-.88.27-1.75.58-2.67.89a1,1,0,0,1,.36-1.42,7.75,7.75,0,0,1,1.87-1.06c3.4-1.19,6.82-2.33,10.23-3.49l.45-.16a5.82,5.82,0,0,0-.32-.66c-4.1-6.23-9.55-10.67-16.82-12.68a36.29,36.29,0,0,0-13.19-1.07c-8.45.79-16,3.95-23.08,8.49a46.49,46.49,0,0,0-8.76,7,3.22,3.22,0,0,1-1.12.71q-6.73,2.71-13.48,5.38l-.36.14a77.72,77.72,0,0,1,6,23.44A16.46,16.46,0,0,0,91.13,143.39Z"/><path class="cls-8" d="M112.49,187.2c-1.2.48-2.44.88-3.58,1.46a15.67,15.67,0,0,0-2.9,1.92,2.61,2.61,0,0,0-.08,4,10.78,10.78,0,0,0,3.72,2.34,40.9,40.9,0,0,0,9.64,2.51,84.16,84.16,0,0,0,15.72,1,81.7,81.7,0,0,0,10.46-.92,42.53,42.53,0,0,0,8.77-2.15,22.52,22.52,0,0,0,4-2.09,5.27,5.27,0,0,0,1.45-1.81,1.43,1.43,0,0,0-.39-1.95,13.24,13.24,0,0,0-2.39-1.57,41.68,41.68,0,0,0-9-2.69c-.74-.16-1.48-.28-2.22-.43a2.85,2.85,0,0,1-.73-.28,52.76,52.76,0,0,1,12.41.54,13.94,13.94,0,0,1,6.3,2.37,6.32,6.32,0,0,1,1.68,1.9,3.71,3.71,0,0,1-1.23,5,19.71,19.71,0,0,1-3.81,2.21,46.13,46.13,0,0,1-11.91,3.12,82.93,82.93,0,0,1-12.73,1.06c-3.33,0-6.67.1-10-.1s-6.83-.71-10.23-1.12a45.18,45.18,0,0,1-8.9-2.1,17.2,17.2,0,0,1-5.84-2.91l-.24-.2c-2.2-2.09-2.06-3.63,0-5.3a18.43,18.43,0,0,1,6.33-3.13,25.84,25.84,0,0,1,3.3-.77,20,20,0,0,1,2.32-.15C112.48,187,112.49,187.11,112.49,187.2Z"/><path class="cls-7" d="M160.91,158.25a5,5,0,0,1-1.23,3.06A34.47,34.47,0,0,1,146,164.46a28,28,0,0,1-11.53-1.8C127,159.58,122.78,154,121.84,146a18.53,18.53,0,0,1,3.57-13.72,17.52,17.52,0,0,1,9-6,36.56,36.56,0,0,1,9.83-1.68c2.78-.11,5.57,0,8.35,0a.9.9,0,0,1,1,1.22c-.11.19-.59.26-.89.25a52.18,52.18,0,0,0-13.54,1,24.29,24.29,0,0,0-8.3,3.25,12,12,0,0,0-4.75,5.68,22.15,22.15,0,0,0-1.82,9.54,15.56,15.56,0,0,0,6.33,11.78A23.49,23.49,0,0,0,142.26,162a32.48,32.48,0,0,0,17.35-2.44C160.21,159.25,160.79,159,160.91,158.25Z"/><path class="cls-7" d="M162.15,160.09l.43-2.07a54.25,54.25,0,0,0,9.11-6.72,85.83,85.83,0,0,0,9.49-9.17,8,8,0,0,1,4.35-2.43,34.15,34.15,0,0,1,13.42-.44,7.55,7.55,0,0,1,1.94.66c.37.17.84.4.71,1h0a18.16,18.16,0,0,0-3-.58c-3.09-.08-6.19-.12-9.28,0a18.67,18.67,0,0,0-4,.8,7,7,0,0,0-1.57.92,2.45,2.45,0,0,0,1.71,1.15,28.21,28.21,0,0,0,6.84.85,26.4,26.4,0,0,0,11.29-2,2.49,2.49,0,0,1,3.13.69c1.66,1.79,3.28,3.63,5.06,5.29a55.45,55.45,0,0,0,17.93,11.36.55.55,0,0,1,.34.35c-.43-.05-.87-.06-1.29-.15a35.16,35.16,0,0,1-14.25-6.93,51.16,51.16,0,0,1-8-7.84,2.79,2.79,0,0,0-3.47-1,30.15,30.15,0,0,1-13.84,1.37c-2.2-.34-4.35-1-6.67-1.5-1.19,1.15-2.5,2.46-3.86,3.72a105.19,105.19,0,0,1-13.18,10.75C164.38,158.86,163.25,159.45,162.15,160.09Z"/><path class="cls-8" d="M144.58,188.65a12.17,12.17,0,0,1,5.68,1.23l.09,0c2,1.14,2.09,2.68.2,4a16,16,0,0,1-5.75,2.16,58.12,58.12,0,0,1-15,1.19,46.38,46.38,0,0,1-11.4-1.6,35.1,35.1,0,0,1-4.07-1.68,2.92,2.92,0,0,1-.88-.7,1.49,1.49,0,0,1-.43-1.78,2,2,0,0,1,2-1.17c-.54,1.57.4,2.31,1.54,2.94a17.08,17.08,0,0,0,6,1.78c2,.29,4,.46,5.94.65,1.06.1,2.13.16,3.19.17a44.1,44.1,0,0,0,11.47-1,15.32,15.32,0,0,0,3.54-1.34c1.44-.78,1.49-2.1.22-3.17-.73-.61-1.55-1.12-2.33-1.68Z"/><path class="cls-7" d="M123.23,167c-.47-.15-.95-.28-1.4-.47a21.8,21.8,0,0,1-5.76-3.55,27.88,27.88,0,0,1-7.71-9.55,34,34,0,0,1-3.45-14.72,13,13,0,0,1,2.15-7.41,7.1,7.1,0,0,1,.53-.61l.24.14c-.22.84-.44,1.67-.65,2.51A26.13,26.13,0,0,0,109,150.83a34.7,34.7,0,0,0,12.75,14.66c.56.38,1.1.8,1.64,1.2Z"/><path class="cls-7" d="M123.71,127.15a9.55,9.55,0,0,1-1.13,1q-2.3,1.47-4.65,2.86a2.27,2.27,0,0,1-2.6-.11,15,15,0,0,1-6.19-7c-.08-.19-.16-.38-.21-.58-.58-2-.2-2.81,1.75-3.45a23.62,23.62,0,0,1,13-.66,5.5,5.5,0,0,1,2.63,1.39l-4-.22a39.13,39.13,0,0,0-8.65.26,8.48,8.48,0,0,0-2,.6,1.25,1.25,0,0,0-.84,1.57,8,8,0,0,0,6.06,6.42,4,4,0,0,0,1.9-.27c1.28-.47,2.53-1.07,3.79-1.6l1-.4Z"/><path class="cls-7" d="M146.42,112.86a1.43,1.43,0,0,1-1.47,1.29,1.81,1.81,0,0,1-1.77-1.66,1.38,1.38,0,0,1,1.57-1.26A1.7,1.7,0,0,1,146.42,112.86Z"/><path class="cls-7" d="M179,151.35a14.48,14.48,0,0,1,1.18-1.47,7.4,7.4,0,0,0,2.25-3.24c.2-.73.47-.78,1.3-.51a3.8,3.8,0,0,1-.41,1.11,27.19,27.19,0,0,1-2.1,2.38c-.65.65-1.39,1.21-2.08,1.81Z"/><path class="cls-7" d="M195.11,147.43c1-.18,1.28-.12,1.41.58a4,4,0,0,1-.08,1.78,4.13,4.13,0,0,0-.32,2.19c.15.65-.15,1.17-.88,1.67.07-.38.11-.58.13-.79a5,5,0,0,0,.16-1.52,2.41,2.41,0,0,1,.29-2c.12-.17,0-.57-.11-.82A8.62,8.62,0,0,0,195.11,147.43Z"/><path class="cls-7" d="M184.39,152.21a5.53,5.53,0,0,1,.59-1.36,5.26,5.26,0,0,0,.95-2.35,5.64,5.64,0,0,1,.39-1.26c.07-.16.36-.21.56-.32.1.22.33.46.29.65-.18.82-.43,1.64-.67,2.45a1,1,0,0,1-.23.33l-1.68,1.92Z"/><path class="cls-7" d="M200.07,146.44a1.14,1.14,0,0,1,1.05,1.06,2.36,2.36,0,0,0,.34,1.12,3.74,3.74,0,0,1,.8,2.87,5.71,5.71,0,0,1-.14,1.35,16.94,16.94,0,0,0-.51-2,15.24,15.24,0,0,0-1.13-2.38A2.57,2.57,0,0,1,200.07,146.44Z"/><path class="cls-7" d="M191.72,147.53c-.29,1.25.13,2.51-.69,3.64a11.7,11.7,0,0,0-.93,2,1.46,1.46,0,0,1-.12-1.69,5.84,5.84,0,0,0,.89-3.11C190.9,147.9,191,147.55,191.72,147.53Z"/><path class="cls-7" d="M204,145.76c.68-.28,1.09-.12,1.25.52.35,1.37,1.35,2.33,2.28,3.57-1.13-.25-1.57-1-2.15-1.7A4.32,4.32,0,0,1,204,145.76Z"/><path class="cls-9" d="M88.94,186.17l-.37.42a8.55,8.55,0,0,1-.82-2.84l.27-.09Z"/><polygon class="cls-7" points="201.6 140.91 201.65 140.93 201.62 140.91 201.6 140.91"/><path class="cls-8" d="M144.59,188.64l-.05,0,0,.06Z"/><path class="cls-1" d="M186.16,330.64c-87.44,0-158.57-71.13-158.57-158.57S98.72,13.5,186.16,13.5,344.73,84.63,344.73,172.07,273.6,330.64,186.16,330.64Zm0-310.68C102.29,20,34.06,88.2,34.06,172.07s68.23,152.1,152.11,152.1,152.11-68.23,152.11-152.1S270,20,186.16,20Z"/><path class="cls-1" d="M435.95,144.44l1,.63a4.76,4.76,0,0,0,.4,2,7.92,7.92,0,0,0,2.76,3,25.64,25.64,0,0,0,4.73,2.58,34.61,34.61,0,0,0,5.58,1.82,22.84,22.84,0,0,0,5.23.69,39.8,39.8,0,0,0,4.42-.32,21.59,21.59,0,0,0,5.33-1.32,14,14,0,0,0,4.52-2.77,6,6,0,0,0,1.91-4.65,5.1,5.1,0,0,0-1.76-4.27,11.35,11.35,0,0,0-4.62-2,40.55,40.55,0,0,0-6.53-.82q-3.67-.19-7.49-.57a55.27,55.27,0,0,1-7.49-1.26,18.25,18.25,0,0,1-6.53-3,14.93,14.93,0,0,1-4.62-5.65,21.31,21.31,0,0,1-1.76-9.36,21.1,21.1,0,0,1,1.46-7.66,18.26,18.26,0,0,1,4.47-6.66,23.18,23.18,0,0,1,7.64-4.71,29.57,29.57,0,0,1,10.86-1.82,37.6,37.6,0,0,1,9.25,1,57.78,57.78,0,0,1,6.79,2.14q2.86,1.13,4.83,2.14a7.54,7.54,0,0,0,3.27,1,2.43,2.43,0,0,0,2-.75l1.21,1-6.94,15.71-1-.5a8.15,8.15,0,0,0-.8-2.89,9.65,9.65,0,0,0-2.66-3,21.52,21.52,0,0,0-4.37-2.58,30.2,30.2,0,0,0-5.43-1.82,25.27,25.27,0,0,0-5.83-.69,25,25,0,0,0-4.57.44,18.21,18.21,0,0,0-4.27,1.32,9.27,9.27,0,0,0-3.17,2.32,5.26,5.26,0,0,0-1.26,3.58,5.63,5.63,0,0,0,1.76,4.52,11.49,11.49,0,0,0,4.62,2.26,35.21,35.21,0,0,0,6.53,1q3.67.25,7.49.63a49.46,49.46,0,0,1,7.49,1.32,19.18,19.18,0,0,1,6.53,3,15.07,15.07,0,0,1,4.62,5.59,20.58,20.58,0,0,1,1.76,9.17q0,6.53-2.76,10.68a20.65,20.65,0,0,1-6.89,6.53,26.46,26.46,0,0,1-8.9,3.2,53,53,0,0,1-8.9.82,47.5,47.5,0,0,1-9.6-.82,30,30,0,0,1-6.43-2,38.77,38.77,0,0,1-4.07-2.14,5.16,5.16,0,0,0-2.61-.94q-.7,0-1.31,1l-1.41-1Z"/><path class="cls-1" d="M498.78,162.91q2.61,0,2.61-2.26v-57q0-2.26-2.61-2.26V99.08h16.69v2.26q-2.61,0-2.61,2.26v57q0,2.26,2.61,2.26v2.26H498.78Z"/><path class="cls-1" d="M560.3,160.65a2,2,0,0,0,2.21,2.26v2.26H547v-2.26a1.72,1.72,0,0,0,1.26-.57,2.34,2.34,0,0,0,.55-1.7v-50H532.25a2.93,2.93,0,0,0-1.76.63,2.8,2.8,0,0,0-.85,2.39h-1.81V96.06h1.81a2.8,2.8,0,0,0,.85,2.39,2.92,2.92,0,0,0,1.76.63h44.63a2.93,2.93,0,0,0,1.76-.63,2.8,2.8,0,0,0,.85-2.39h1.81v17.59H579.5a2.81,2.81,0,0,0-.85-2.39,2.94,2.94,0,0,0-1.76-.63H560.3Z"/><path class="cls-1" d="M606.34,160.65a2.22,2.22,0,0,0,.6,1.7,2,2,0,0,0,1.41.57v2.26H592.67v-2.26a2,2,0,0,0,2.21-2.26v-57a2,2,0,0,0-2.21-2.26V99.08h15.68v2.26a2,2,0,0,0-1.41.57,2.22,2.22,0,0,0-.6,1.7v23.87L627.15,107q1.41-1.51,2.21-2.45a2.71,2.71,0,0,0,.8-1.57,1.56,1.56,0,0,0-.45-1.26,1.61,1.61,0,0,0-1.06-.38V99.08h21.11v2.26a5.14,5.14,0,0,0-3.62,1.88l-23.12,23,21.11,30.53a29.6,29.6,0,0,0,3.07,3.71,9.57,9.57,0,0,0,3.47,2.45v2.26h-18.6v-2.26c.87,0,1.31-.29,1.31-.88a7.69,7.69,0,0,0-1.41-2.76l-17.19-24.75-8.44,8.17Z"/><path class="cls-1" d="M654.49,162.91a3,3,0,0,0,2.06-1.63,29.25,29.25,0,0,0,1.46-3.14l18.6-48.88q.7-1.63,1.26-3a6.61,6.61,0,0,0,.55-2.39,2,2,0,0,0-.7-1.76,5.37,5.37,0,0,0-1.51-.75V99.08h17v2.26a7.41,7.41,0,0,0-1.41.69,2,2,0,0,0-.7,1.82,6,6,0,0,0,.35,2q.35,1,1.06,2.64l20.91,51.14a4.17,4.17,0,0,0,1.36,2,19.46,19.46,0,0,0,2,1.26v2.26H699v-2.26a2,2,0,0,0,1-.38,1.24,1.24,0,0,0,.6-1.13,9.33,9.33,0,0,0-.8-3.27l-3.82-9.3H671.48l-3.62,8.92a12.5,12.5,0,0,0-1,3.77q0,1.39,1.91,1.38v2.26H654.49Zm37.9-23.37-8.44-23.37-9.45,23.37Z"/><path class="cls-1" d="M752.6,144.44l1,.63a4.76,4.76,0,0,0,.4,2,7.92,7.92,0,0,0,2.76,3,25.64,25.64,0,0,0,4.73,2.58,34.61,34.61,0,0,0,5.58,1.82,22.84,22.84,0,0,0,5.23.69,39.8,39.8,0,0,0,4.42-.32,21.59,21.59,0,0,0,5.33-1.32,14,14,0,0,0,4.52-2.77,6,6,0,0,0,1.91-4.65,5.1,5.1,0,0,0-1.76-4.27,11.35,11.35,0,0,0-4.62-2,40.55,40.55,0,0,0-6.53-.82q-3.67-.19-7.49-.57a55.27,55.27,0,0,1-7.49-1.26,18.25,18.25,0,0,1-6.53-3,14.93,14.93,0,0,1-4.62-5.65,21.31,21.31,0,0,1-1.76-9.36,21.1,21.1,0,0,1,1.46-7.66,18.26,18.26,0,0,1,4.47-6.66,23.18,23.18,0,0,1,7.64-4.71,29.57,29.57,0,0,1,10.86-1.82,37.6,37.6,0,0,1,9.25,1,57.78,57.78,0,0,1,6.79,2.14Q791,102.6,793,103.6a7.54,7.54,0,0,0,3.27,1,2.43,2.43,0,0,0,2-.75l1.21,1-6.94,15.71-1-.5a8.15,8.15,0,0,0-.8-2.89,9.65,9.65,0,0,0-2.66-3,21.52,21.52,0,0,0-4.37-2.58,30.2,30.2,0,0,0-5.43-1.82,25.27,25.27,0,0,0-5.83-.69,25,25,0,0,0-4.57.44,18.21,18.21,0,0,0-4.27,1.32,9.27,9.27,0,0,0-3.17,2.32,5.26,5.26,0,0,0-1.26,3.58,5.63,5.63,0,0,0,1.76,4.52,11.49,11.49,0,0,0,4.62,2.26,35.21,35.21,0,0,0,6.53,1q3.67.25,7.49.63a49.46,49.46,0,0,1,7.49,1.32,19.18,19.18,0,0,1,6.53,3,15.07,15.07,0,0,1,4.62,5.59,20.58,20.58,0,0,1,1.76,9.17q0,6.53-2.76,10.68a20.65,20.65,0,0,1-6.89,6.53,26.46,26.46,0,0,1-8.9,3.2,53,53,0,0,1-8.9.82,47.5,47.5,0,0,1-9.6-.82,30,30,0,0,1-6.43-2,38.77,38.77,0,0,1-4.07-2.14,5.16,5.16,0,0,0-2.61-.94q-.7,0-1.31,1l-1.41-1Z"/><path class="cls-1" d="M846.19,98.33a33,33,0,0,1,11.26,2.07,32.5,32.5,0,0,1,10.45,6.22,32,32,0,0,1,7.74,10.49,34.68,34.68,0,0,1,3,15,34.67,34.67,0,0,1-3,15,32,32,0,0,1-7.74,10.49,29.91,29.91,0,0,1-10.45,6,34.56,34.56,0,0,1-22.52,0,29.89,29.89,0,0,1-10.45-6,32,32,0,0,1-7.74-10.49,34.67,34.67,0,0,1-3-15,34.68,34.68,0,0,1,3-15,32,32,0,0,1,7.74-10.49,32.48,32.48,0,0,1,10.45-6.22A32.94,32.94,0,0,1,846.19,98.33Zm0,11.56a20.67,20.67,0,0,0-7.64,1.51,22,22,0,0,0-6.89,4.33,21.66,21.66,0,0,0-5,7,24.21,24.21,0,0,0,0,18.85,21.65,21.65,0,0,0,5,7,22,22,0,0,0,6.89,4.33,20.11,20.11,0,0,0,15.28,0,22,22,0,0,0,6.89-4.33,21.71,21.71,0,0,0,5-7,24.21,24.21,0,0,0,0-18.85,21.72,21.72,0,0,0-5-7,22,22,0,0,0-6.89-4.33A20.69,20.69,0,0,0,846.19,109.89Z"/><path class="cls-1" d="M908.41,101.34a2,2,0,0,0-2.21,2.26v37.7q0,7.92,4.07,10.87t11.91,3q7.84,0,11.91-3t4.07-10.87V103.6q0-2.26-3-2.26V99.08h16.08v2.26q-2.41,0-2.41,2.26v37.07a37.28,37.28,0,0,1-1.71,12.25,17.51,17.51,0,0,1-5.13,7.73,18.43,18.43,0,0,1-8.5,3.9,68.72,68.72,0,0,1-23.42,0,18.41,18.41,0,0,1-8.49-3.9,17.47,17.47,0,0,1-5.13-7.73,37.23,37.23,0,0,1-1.71-12.25V103.6q0-2.26-2.81-2.26V99.08h16.49Z"/><path class="cls-1" d="M967,162.91q1.91,0,1.91-2.26v-57q0-2.26-1.91-2.26V99.08h17.19v2.26q-.81,0-.8,1.26,0,1,2,3.52l28.85,37.44v-40q0-2.26-2.61-2.26V99.08h15.18v2.26q-1.91,0-1.91,2.26v57q0,2.26,1.91,2.26v2.26h-16.29v-2.26c.87,0,1.31-.38,1.31-1.13q0-.88-1.61-2.89l-30.66-40v41.72a2,2,0,0,0,2.31,2.26v2.26H967Z"/><path class="cls-1" d="M1076.89,99.08a26.3,26.3,0,0,1,10.3,2,22.27,22.27,0,0,1,8.29,6.09,29.5,29.5,0,0,1,5.53,10.31,47.75,47.75,0,0,1,2,14.64,47.76,47.76,0,0,1-2,14.64,29.47,29.47,0,0,1-5.53,10.3,22.23,22.23,0,0,1-8.29,6.09,26.27,26.27,0,0,1-10.3,2h-33.37v-2.26a2,2,0,0,0,2.31-2.26v-57a2,2,0,0,0-2.31-2.26V99.08Zm-4,55.29a30.11,30.11,0,0,0,8.24-1,12.13,12.13,0,0,0,5.83-3.58,16.55,16.55,0,0,0,3.47-6.85,42.28,42.28,0,0,0,1.16-10.81,42.31,42.31,0,0,0-1.16-10.81,16.58,16.58,0,0,0-3.47-6.85,12.15,12.15,0,0,0-5.83-3.58,30.16,30.16,0,0,0-8.24-1h-15.58v44.48Z"/><path class="cls-1" d="M434.93,223.41l.75.47a3.59,3.59,0,0,0,.3,1.51,6,6,0,0,0,2.07,2.22,19.2,19.2,0,0,0,3.55,1.93,25.83,25.83,0,0,0,4.19,1.37,17.12,17.12,0,0,0,3.92.52,29.65,29.65,0,0,0,3.32-.24,16.16,16.16,0,0,0,4-1,10.51,10.51,0,0,0,3.39-2.07,4.52,4.52,0,0,0,1.43-3.49,3.83,3.83,0,0,0-1.32-3.2,8.5,8.5,0,0,0-3.47-1.51,30.36,30.36,0,0,0-4.9-.61q-2.75-.14-5.62-.42a41.42,41.42,0,0,1-5.62-.94,13.69,13.69,0,0,1-4.9-2.21,11.21,11.21,0,0,1-3.47-4.24,17.51,17.51,0,0,1-.23-12.78,13.72,13.72,0,0,1,3.36-5,17.39,17.39,0,0,1,5.73-3.54,22.18,22.18,0,0,1,8.15-1.37,28.2,28.2,0,0,1,6.94.75,43.74,43.74,0,0,1,5.09,1.6q2.15.85,3.62,1.6a5.68,5.68,0,0,0,2.45.75,1.82,1.82,0,0,0,1.51-.57l.91.75-5.21,11.79-.75-.38a6.11,6.11,0,0,0-.6-2.17,7.25,7.25,0,0,0-2-2.22,16.14,16.14,0,0,0-3.28-1.93,22.67,22.67,0,0,0-4.07-1.37,19,19,0,0,0-4.38-.52,18.77,18.77,0,0,0-3.43.33,13.65,13.65,0,0,0-3.21,1,7,7,0,0,0-2.38,1.74,4,4,0,0,0-.94,2.69,4.22,4.22,0,0,0,1.32,3.39,8.65,8.65,0,0,0,3.47,1.7,26.47,26.47,0,0,0,4.9.75q2.75.19,5.62.47a37.49,37.49,0,0,1,5.62,1,14.4,14.4,0,0,1,4.9,2.26,11.31,11.31,0,0,1,3.47,4.2,15.44,15.44,0,0,1,1.32,6.88,14.18,14.18,0,0,1-2.07,8,15.5,15.5,0,0,1-5.17,4.9,19.9,19.9,0,0,1-6.68,2.4,39.7,39.7,0,0,1-6.68.61,35.59,35.59,0,0,1-7.2-.61,22.59,22.59,0,0,1-4.83-1.51,29.58,29.58,0,0,1-3.06-1.6,3.87,3.87,0,0,0-2-.71q-.53,0-1,.75l-1.06-.75Z"/><path class="cls-1" d="M524.17,232.18a1.7,1.7,0,0,1-.41,0,1.71,1.71,0,0,0-.41,0,6.29,6.29,0,0,0-2.15,1.13q-1.7,1.13-4.3,2.55a32.93,32.93,0,0,1-5.92,2.45,23.12,23.12,0,0,1-6.94,1,27.76,27.76,0,0,1-9.13-1.51,21.24,21.24,0,0,1-7.73-4.67,22.47,22.47,0,0,1-5.32-7.87,31.87,31.87,0,0,1,0-22,22.88,22.88,0,0,1,5.32-8,22.11,22.11,0,0,1,7.73-4.81,26.36,26.36,0,0,1,9.13-1.6,29.84,29.84,0,0,1,7,.75,52.25,52.25,0,0,1,5.47,1.6,26.45,26.45,0,0,1,3.7,1.6,5.88,5.88,0,0,0,1.66.75.75.75,0,0,0,.64-.47l.41-.76,1.13,1.13-5.88,11.41-.75-.66a4.34,4.34,0,0,0,0-.57q0-.28-.11-.66a3.61,3.61,0,0,0-1.51-2.12,14.42,14.42,0,0,0-3.36-1.93,29.19,29.19,0,0,0-4.22-1.41,16.76,16.76,0,0,0-4.11-.57A16.56,16.56,0,0,0,498,198a14.36,14.36,0,0,0-5.05,3.3,16,16,0,0,0-3.43,5.33,20.92,20.92,0,0,0,0,14.43,16,16,0,0,0,3.43,5.33,14.35,14.35,0,0,0,5.05,3.3,16.59,16.59,0,0,0,6.07,1.13,19.56,19.56,0,0,0,5.05-.71,25.92,25.92,0,0,0,4.83-1.79,15.27,15.27,0,0,0,3.66-2.45,3.75,3.75,0,0,0,1.47-2.59,2.06,2.06,0,0,0-.3-1.13l1.06-.75,5,10Z"/><path class="cls-1" d="M536.54,237.28q2,0,2-1.7V192.77q0-1.7-2-1.7v-1.7h12.52v1.7q-2,0-2,1.7v42.81q0,1.7,2,1.7V239H536.54Z"/><path class="cls-1" d="M599.16,199.56a1.88,1.88,0,0,0-.64-1.56,3.62,3.62,0,0,0-2.23-.52H571.85v11.69h14.79a4.42,4.42,0,0,0,2.34-.52q.83-.52.83-2.69h1.36v14.71H589.8q0-2.17-.83-2.78a3.88,3.88,0,0,0-2.34-.61H571.85v13H597a2.61,2.61,0,0,0,1.85-.66,2.31,2.31,0,0,0,.72-1.79H601v12.92h-1.36q0-1.41-.72-1.6A7.38,7.38,0,0,0,597,239H561.89v-1.7a1.29,1.29,0,0,0,.94-.42,1.76,1.76,0,0,0,.41-1.27V192.77a1.76,1.76,0,0,0-.41-1.27,1.29,1.29,0,0,0-.94-.42v-1.7h34.4a3.19,3.19,0,0,0,2.23-.61,2.18,2.18,0,0,0,.64-1.65h1.36v12.45Z"/><path class="cls-1" d="M612.58,237.28q1.43,0,1.43-1.7V192.77q0-1.7-1.43-1.7v-1.7h12.9v1.7c-.4,0-.6.31-.6.94a5.76,5.76,0,0,0,1.51,2.64L648,222.75v-30q0-1.7-2-1.7v-1.7h11.39v1.7q-1.43,0-1.43,1.7v42.81q0,1.7,1.43,1.7V239H645.25v-1.7q1,0,1-.85a4.56,4.56,0,0,0-1.21-2.17l-23-30v31.31a1.52,1.52,0,0,0,1.74,1.7V239H612.58Z"/><path class="cls-1" d="M712.77,232.18a1.7,1.7,0,0,1-.41,0,1.7,1.7,0,0,0-.41,0,6.29,6.29,0,0,0-2.15,1.13q-1.7,1.13-4.3,2.55a32.93,32.93,0,0,1-5.92,2.45,23.12,23.12,0,0,1-6.94,1,27.76,27.76,0,0,1-9.13-1.51,21.24,21.24,0,0,1-7.73-4.67,22.47,22.47,0,0,1-5.32-7.87,31.87,31.87,0,0,1,0-22,22.88,22.88,0,0,1,5.32-8,22.11,22.11,0,0,1,7.73-4.81,26.36,26.36,0,0,1,9.13-1.6,29.85,29.85,0,0,1,7,.75,52.26,52.26,0,0,1,5.47,1.6,26.46,26.46,0,0,1,3.7,1.6,5.88,5.88,0,0,0,1.66.75.75.75,0,0,0,.64-.47l.41-.76,1.13,1.13-5.88,11.41-.75-.66a4.36,4.36,0,0,0,0-.57q0-.28-.11-.66a3.61,3.61,0,0,0-1.51-2.12A14.42,14.42,0,0,0,701,198.9a29.19,29.19,0,0,0-4.22-1.41,16.76,16.76,0,0,0-4.11-.57,16.56,16.56,0,0,0-6.07,1.13,14.36,14.36,0,0,0-5.05,3.3,16,16,0,0,0-3.43,5.33,20.92,20.92,0,0,0,0,14.43,16,16,0,0,0,3.43,5.33,14.35,14.35,0,0,0,5.05,3.3,16.59,16.59,0,0,0,6.07,1.13,19.56,19.56,0,0,0,5.05-.71,25.93,25.93,0,0,0,4.83-1.79,15.28,15.28,0,0,0,3.66-2.45,3.75,3.75,0,0,0,1.47-2.59,2.06,2.06,0,0,0-.3-1.13l1.06-.75,5,10Z"/><path class="cls-1" d="M762.63,199.56A1.88,1.88,0,0,0,762,198a3.62,3.62,0,0,0-2.23-.52H735.32v11.69H750.1a4.42,4.42,0,0,0,2.34-.52q.83-.52.83-2.69h1.36v14.71h-1.36q0-2.17-.83-2.78a3.88,3.88,0,0,0-2.34-.61H735.32v13h25.2a2.61,2.61,0,0,0,1.85-.66,2.31,2.31,0,0,0,.72-1.79h1.36v12.92h-1.36q0-1.41-.72-1.6a7.38,7.38,0,0,0-1.85-.19H725.36v-1.7a1.29,1.29,0,0,0,.94-.42,1.76,1.76,0,0,0,.41-1.27V192.77a1.76,1.76,0,0,0-.41-1.27,1.29,1.29,0,0,0-.94-.42v-1.7h34.4a3.19,3.19,0,0,0,2.23-.61,2.18,2.18,0,0,0,.64-1.65H764v12.45Z"/><path class="cls-1" d="M840.55,232.18a1.7,1.7,0,0,1-.41,0,1.71,1.71,0,0,0-.41,0,6.29,6.29,0,0,0-2.15,1.13q-1.7,1.13-4.3,2.55a32.93,32.93,0,0,1-5.92,2.45,23.12,23.12,0,0,1-6.94,1,27.76,27.76,0,0,1-9.13-1.51,21.24,21.24,0,0,1-7.73-4.67,22.47,22.47,0,0,1-5.32-7.87,31.87,31.87,0,0,1,0-22,22.88,22.88,0,0,1,5.32-8,22.11,22.11,0,0,1,7.73-4.81,26.36,26.36,0,0,1,9.13-1.6,29.85,29.85,0,0,1,7,.75,52.26,52.26,0,0,1,5.47,1.6,26.46,26.46,0,0,1,3.7,1.6,5.88,5.88,0,0,0,1.66.75.75.75,0,0,0,.64-.47l.41-.76,1.13,1.13-5.88,11.41-.75-.66a4.36,4.36,0,0,0,0-.57q0-.28-.11-.66a3.61,3.61,0,0,0-1.51-2.12,14.42,14.42,0,0,0-3.36-1.93,29.19,29.19,0,0,0-4.22-1.41,16.76,16.76,0,0,0-4.11-.57,16.56,16.56,0,0,0-6.07,1.13,14.36,14.36,0,0,0-5.05,3.3,16,16,0,0,0-3.43,5.33,20.93,20.93,0,0,0,0,14.43,16,16,0,0,0,3.43,5.33,14.35,14.35,0,0,0,5.05,3.3,16.59,16.59,0,0,0,6.07,1.13,19.56,19.56,0,0,0,5.05-.71,25.93,25.93,0,0,0,4.83-1.79,15.28,15.28,0,0,0,3.66-2.45,3.75,3.75,0,0,0,1.47-2.59,2.06,2.06,0,0,0-.3-1.13l1.06-.75,5,10Z"/><path class="cls-1" d="M890.42,199.56a1.88,1.88,0,0,0-.64-1.56,3.62,3.62,0,0,0-2.23-.52H863.11v11.69h14.79a4.42,4.42,0,0,0,2.34-.52q.83-.52.83-2.69h1.36v14.71h-1.36q0-2.17-.83-2.78a3.88,3.88,0,0,0-2.34-.61H863.11v13h25.2a2.61,2.61,0,0,0,1.85-.66,2.32,2.32,0,0,0,.72-1.79h1.36v12.92h-1.36q0-1.41-.72-1.6a7.38,7.38,0,0,0-1.85-.19H853.15v-1.7a1.29,1.29,0,0,0,.94-.42,1.76,1.76,0,0,0,.41-1.27V192.77a1.76,1.76,0,0,0-.41-1.27,1.29,1.29,0,0,0-.94-.42v-1.7h34.4a3.19,3.19,0,0,0,2.23-.61,2.18,2.18,0,0,0,.64-1.65h1.36v12.45Z"/><path class="cls-1" d="M903.84,237.28q1.43,0,1.43-1.7V192.77q0-1.7-1.43-1.7v-1.7h12.9v1.7c-.4,0-.6.31-.6.94a5.76,5.76,0,0,0,1.51,2.64l21.65,28.1v-30q0-1.7-2-1.7v-1.7h11.39v1.7q-1.43,0-1.43,1.7v42.81q0,1.7,1.43,1.7V239H936.51v-1.7q1,0,1-.85a4.56,4.56,0,0,0-1.21-2.17l-23-30v31.31a1.52,1.52,0,0,0,1.74,1.7V239H903.84Z"/><path class="cls-1" d="M983,235.58a1.48,1.48,0,0,0,1.66,1.7V239H973v-1.7a1.29,1.29,0,0,0,.94-.42,1.76,1.76,0,0,0,.41-1.27V198H961.93a2.2,2.2,0,0,0-1.32.47,2.1,2.1,0,0,0-.64,1.79h-1.36v-13.2H960a2.1,2.1,0,0,0,.64,1.79,2.2,2.2,0,0,0,1.32.47h33.49a2.2,2.2,0,0,0,1.32-.47,2.1,2.1,0,0,0,.64-1.79h1.36v13.2h-1.36a2.11,2.11,0,0,0-.64-1.79,2.2,2.2,0,0,0-1.32-.47H983Z"/><path class="cls-1" d="M1045.51,199.56a1.89,1.89,0,0,0-.64-1.56,3.62,3.62,0,0,0-2.23-.52h-24.44v11.69H1033a4.42,4.42,0,0,0,2.34-.52q.83-.52.83-2.69h1.36v14.71h-1.36q0-2.17-.83-2.78a3.88,3.88,0,0,0-2.34-.61h-14.79v13h25.2a2.61,2.61,0,0,0,1.85-.66,2.32,2.32,0,0,0,.72-1.79h1.36v12.92H1046q0-1.41-.72-1.6a7.38,7.38,0,0,0-1.85-.19h-35.15v-1.7a1.29,1.29,0,0,0,.94-.42,1.76,1.76,0,0,0,.41-1.27V192.77a1.76,1.76,0,0,0-.41-1.27,1.29,1.29,0,0,0-.94-.42v-1.7h34.4a3.19,3.19,0,0,0,2.23-.61,2.18,2.18,0,0,0,.64-1.65h1.36v12.45Z"/><path class="cls-1" d="M1083.91,189.37a25,25,0,0,1,6.56.8,13.35,13.35,0,0,1,5.05,2.55,11.26,11.26,0,0,1,3.24,4.53,18.19,18.19,0,0,1,1.13,6.84q0,6.22-2.94,9.52A14.61,14.61,0,0,1,1089,218l10,17.92a2.12,2.12,0,0,0,1.25,1.13,5.18,5.18,0,0,0,1.32.19V239h-14.11v-1.7a2.32,2.32,0,0,0,1.17-.28.85.85,0,0,0,.49-.75,2.54,2.54,0,0,0-.3-1.08q-.3-.61-.91-1.65l-8.3-14.71H1068.9v16.79a1.59,1.59,0,0,0,.49,1.27,2.77,2.77,0,0,0,1.77.42V239h-13.05v-1.7q2.19,0,2.19-1.7V192.77q0-1.7-2.19-1.7v-1.7Zm-2,22.06a16.7,16.7,0,0,0,4.53-.52,7.22,7.22,0,0,0,2.87-1.46,5.35,5.35,0,0,0,1.51-2.22,8.79,8.79,0,0,0,0-5.56,5.34,5.34,0,0,0-1.51-2.21,7.24,7.24,0,0,0-2.87-1.46,16.76,16.76,0,0,0-4.53-.52H1068.9v14Z"/></svg>