<svg xmlns="http://www.w3.org/2000/svg" viewBox="0 0 100 100"><defs><style>.a{fill:#fff;fill-rule:evenodd;}</style></defs><title>population-icon</title><path class="a" d="M78.57,42.69A4.65,4.65,0,1,0,73.91,38,4.65,4.65,0,0,0,78.57,42.69ZM54,53.32A6.64,6.64,0,1,0,60.63,60,6.64,6.64,0,0,0,54,53.32ZM52.66,24.09A10.63,10.63,0,1,0,63.29,34.72,10.63,10.63,0,0,0,52.66,24.09ZM83.21,49.34A13.29,13.29,0,1,0,96.5,62.62,13.29,13.29,0,0,0,83.21,49.34ZM20.77,40A17.27,17.27,0,1,0,38,57.31,17.27,17.27,0,0,0,20.77,40Z"/></svg>