<?xml version="1.0" encoding="utf-8"?>
<!-- Generator: Adobe Illustrator 21.1.0, SVG Export Plug-In . SVG Version: 6.00 Build 0)  -->
<svg version="1.1" id="Layer_1" xmlns="http://www.w3.org/2000/svg" xmlns:xlink="http://www.w3.org/1999/xlink" x="0px" y="0px"
	 viewBox="0 0 120 18.1" style="enable-background:new 0 0 120 18.1;" xml:space="preserve">
<style type="text/css">
	.st0{fill:#FFFFFF;}
</style>
<title>size</title>
<polygon class="st0" points="2.9,10.1 2.9,8 2.9,8 "/>
<polygon class="st0" points="117.1,10.1 117.1,8 117.1,8 "/>
<rect x="1.9" y="2.3" class="st0" width="2.1" height="13.6"/>
<rect x="116" y="2.3" class="st0" width="2.1" height="13.6"/>
<rect x="111.6" y="5.8" class="st0" width="1" height="6.4"/>
<rect x="105.8" y="5.8" class="st0" width="1" height="6.4"/>
<rect x="100.1" y="5.8" class="st0" width="1" height="6.4"/>
<rect x="94.3" y="5.8" class="st0" width="1" height="6.4"/>
<rect x="88.6" y="5.8" class="st0" width="1" height="6.4"/>
<rect x="82.8" y="5.8" class="st0" width="1" height="6.4"/>
<rect x="77.1" y="5.8" class="st0" width="1" height="6.4"/>
<rect x="71.3" y="5.8" class="st0" width="1" height="6.4"/>
<rect x="65.5" y="5.8" class="st0" width="1" height="6.4"/>
<rect x="59.8" y="5.8" class="st0" width="1" height="6.4"/>
<rect x="54" y="5.8" class="st0" width="1" height="6.4"/>
<rect x="48.2" y="5.8" class="st0" width="1" height="6.4"/>
<rect x="42.5" y="5.8" class="st0" width="1" height="6.4"/>
<rect x="36.7" y="5.8" class="st0" width="1" height="6.4"/>
<rect x="31" y="5.8" class="st0" width="1" height="6.4"/>
<rect x="25.2" y="5.8" class="st0" width="1" height="6.4"/>
<rect x="19.5" y="5.8" class="st0" width="1" height="6.4"/>
<rect x="13.7" y="5.8" class="st0" width="1" height="6.4"/>
<rect x="7.9" y="5.8" class="st0" width="1" height="6.4"/>
<rect x="2.2" y="5.8" class="st0" width="1" height="6.4"/>
</svg>
