<svg xmlns="http://www.w3.org/2000/svg" xmlns:xlink="http://www.w3.org/1999/xlink" viewBox="0 0 100 100"><defs><style>.a{fill:none;}.b{clip-path:url(#a);}.c{fill:#fff;}</style><clipPath id="a"><rect class="a" x="0.99" y="4.87" width="98.03" height="90.26"/></clipPath></defs><title>weight-icon</title><g class="b"><path class="c" d="M50,45.31A20.22,20.22,0,1,1,70.22,25.09,20.24,20.24,0,0,1,50,45.31Zm0-32.65A12.44,12.44,0,1,0,62.43,25.09,12.45,12.45,0,0,0,50,12.66Z"/><path class="c" d="M61,53.24c-1.78,0-2.86,1.74-2.86,4.71,0,3.16,1.11,5,2.86,5,1.93,0,3-1.63,3-4.64S63.19,53.24,61,53.24Z"/><path class="c" d="M56.24,73.44c0,2.34,2.26,3.93,5.42,3.93S67,75.48,67,73.14c0-1.86-1.26-2.93-4.38-3.08-1.08,0-2.71,0-4.23.15A3.64,3.64,0,0,0,56.24,73.44Z"/><path class="c" d="M98.92,90.72,86,29.5a5.82,5.82,0,0,0-5.44-4.4h-61A5.82,5.82,0,0,0,14,29.5l-13,61.23a3.5,3.5,0,0,0,3.57,4.4h90.7A3.5,3.5,0,0,0,98.92,90.72ZM44.46,65,39.64,57l-2.71,2.71v8.17c0,.3.22.41,1.9.56l1.34.11.11.59H29.65l.11-.59,1.45-.15c1.19-.11,1.56-.37,1.56-.63V47.23c0-.3-.15-.41-1.86-.56l-1.11-.11L29.69,46H40.3l-.11.59-1.63.15c-1.19.11-1.64.37-1.64.63V58.7l5.94-6c4.75-4.86,4.64-5.72,1.82-6l-1.34-.11,0-.59h9.62l-.11.59-.82.11c-2.45.22-3,1-7.8,5.83l-1.71,1.67,7.2,11.47c1.48,2.41,1.86,2.71,3.27,2.86l.82.07.11.59H43.61l.11-.59.89-.11C46.06,68.32,46.06,67.69,44.46,65Zm25.63-9.61-3.71-.56,0,.15A4.3,4.3,0,0,1,67.64,58c0,3.16-2.86,5.61-6.72,5.61a13.68,13.68,0,0,1-2.3-.22c-1,.22-1.93.89-1.93,1.78,0,1.08,1,1.52,2.86,1.52,1.22,0,3.16-.11,4.49-.11,3.38,0,5.46,1.75,5.46,4.57,0,4-3.93,7.17-9.8,7.17-4,0-6.38-1.45-6.38-3.94,0-2.12,2.27-3.53,4.27-4.31V70c-2.19-.26-3.75-1.52-3.75-3,0-1.86,2-3.27,4-3.79v-.07a5,5,0,0,1-3.34-4.79c0-3.19,2.82-5.72,6.61-5.72a8.25,8.25,0,0,1,4.42,1.26l4.86-.59Z"/></g></svg>