<svg xmlns="http://www.w3.org/2000/svg" xmlns:xlink="http://www.w3.org/1999/xlink" viewBox="0 0 100 100"><defs><style>.a{fill:none;}.b{clip-path:url(#a);}.c{fill:#fff;}</style><clipPath id="a"><rect class="a" x="10.16" y="13.32" width="79.67" height="73.36"/></clipPath></defs><title>weight-icon</title><g class="b"><path class="c" d="M50,46.19A16.43,16.43,0,1,1,66.43,29.76,16.45,16.45,0,0,1,50,46.19Zm0-26.54A10.11,10.11,0,1,0,60.11,29.76,10.12,10.12,0,0,0,50,19.65Z"/><path class="c" d="M59,52.64c-1.45,0-2.32,1.42-2.32,3.83,0,2.56.9,4.1,2.32,4.1,1.57,0,2.47-1.33,2.47-3.77S60.72,52.64,59,52.64Z"/><path class="c" d="M55.08,69.05c0,1.9,1.84,3.2,4.4,3.2s4.35-1.54,4.35-3.44c0-1.51-1-2.38-3.56-2.5-.88,0-2.2,0-3.44.12A3,3,0,0,0,55.08,69.05Z"/><path class="c" d="M89.76,83.1,79.22,33.34a4.73,4.73,0,0,0-4.42-3.58H25.2a4.73,4.73,0,0,0-4.42,3.58L10.24,83.1a2.85,2.85,0,0,0,2.9,3.58H86.86A2.85,2.85,0,0,0,89.76,83.1ZM45.5,62.17l-3.92-6.46-2.2,2.2v6.64c0,.24.18.33,1.54.45L42,65.1l.09.48H33.46l.09-.48L34.73,65c1-.09,1.27-.3,1.27-.51V47.75c0-.24-.12-.33-1.51-.45l-.91-.09-.09-.48h8.63L42,47.2l-1.33.12c-1,.09-1.33.3-1.33.51v9.23l4.83-4.89c3.86-4,3.77-4.65,1.48-4.89l-1.09-.09,0-.48h7.82l-.09.48-.66.09c-2,.18-2.47.85-6.34,4.74L43.9,53.39l5.85,9.33c1.21,2,1.51,2.2,2.66,2.32l.66.06.09.48H44.8l.09-.48.72-.09C46.8,64.89,46.8,64.37,45.5,62.17Zm20.83-7.81-3-.45,0,.12a3.49,3.49,0,0,1,1.05,2.5c0,2.56-2.32,4.56-5.46,4.56A11.12,11.12,0,0,1,57,60.9c-.85.18-1.57.72-1.57,1.45,0,.88.85,1.24,2.32,1.24,1,0,2.56-.09,3.65-.09,2.75,0,4.43,1.42,4.43,3.71,0,3.29-3.2,5.82-8,5.82-3.29,0-5.19-1.18-5.19-3.2,0-1.72,1.84-2.87,3.47-3.5v-.06c-1.78-.21-3-1.24-3-2.47,0-1.51,1.63-2.66,3.23-3.08v-.06a4.08,4.08,0,0,1-2.72-3.89c0-2.6,2.29-4.65,5.37-4.65a6.71,6.71,0,0,1,3.59,1l4-.48Z"/></g></svg>